<?xml version="1.0" encoding="utf-8"?>
<!-- Generator: Adobe Illustrator 24.2.3, SVG Export Plug-In . SVG Version: 6.00 Build 0)  -->
<svg version="1.1" id="Слой_1" xmlns="http://www.w3.org/2000/svg" xmlns:xlink="http://www.w3.org/1999/xlink" x="0px" y="0px"
	 width="532.6px" height="500px" viewBox="0 0 532.6 500" enable-background="new 0 0 532.6 500" xml:space="preserve">
<path fill="#78A0BE" d="M297,316.7c-73.1-24.1-122-105.4-108.8-180.7c3.4-20.7,10.9-40.5,22.2-58.3c11.3-17.8,26-33.1,43.4-45
	C195.1,49.5,145.3,94.4,131.2,164c-6.8,36.4-1.6,74,14.9,107.2L37.6,384.3c-14.4,15-29.5,31.4-35.4,48c-6.9,20.3,2.5,33.9,11.7,45.4
	c10.7,13.4,24.4,27.4,47.9,20.3c17.2-5.2,34.5-20.5,50.2-34.9c38.8-35.6,77-72,114.6-109c5.4,2.7,10.9,5,16.5,7.1
	c39.1,14,82.1,13.8,123.3,8.4c31.2-4.2,63-11.6,87.8-30.7c15-11.8,26.9-27.1,34.7-44.5c-22,16-49.6,23-76.6,27.3
	C373.9,327.5,333.9,328.9,297,316.7z"/>
<path fill="#82C832" d="M531.6,170.3c-5.4-49.1-28.9-94.4-65.9-127.1C436.1,17.7,398.9,2.6,359.9,0.3c-39-2.3-77.7,8.3-110.1,30.2
	c31.4-9.1,64.6-10.1,96.4-2.7s61.2,22.8,85.4,44.9c38.8,36.1,62.8,85.3,67.3,138.1c2.4,28.3-2.3,56.7-13.8,82.7
	c1.5-1.1,2.9-2.2,4.2-3.4C523.6,262.2,535.8,214.2,531.6,170.3"/>
<path fill="#507800" d="M499.2,210.7c-4.4-53.1-28.1-102.6-66.6-138.9c-23.9-22.1-53.1-37.7-84.7-45.1c-31.6-7.4-64.6-6.5-95.7,2.7
	c-17.3,12.1-32,27.6-43.3,45.5c-11.2,18-18.8,38-22.1,59c-13.1,76.3,35.5,158.4,108.2,182.8c36.6,12.3,74.4,15.6,112.5,9.4
	c26.9-4.2,59.6-11,81.5-27.2C500.3,272.8,501.6,239.1,499.2,210.7z"/>
</svg>
