<?xml version="1.0" encoding="utf-8"?>
<!-- Generator: Adobe Illustrator 24.2.3, SVG Export Plug-In . SVG Version: 6.00 Build 0)  -->
<svg version="1.1" id="Слой_1" xmlns="http://www.w3.org/2000/svg" xmlns:xlink="http://www.w3.org/1999/xlink" x="0px" y="0px"
	 width="375px" height="500px" viewBox="0 0 375 500" enable-background="new 0 0 375 500" xml:space="preserve">
<path fill="#FFA046" d="M202.5,349.4c-18.7,1.8-37-14.8-56.4-19.2c-12.5-2.8-27.7,0-41.7-1.3c1.4,54.3,2.8,107.8,3.2,146.6
	c0,1.9,0.6,3.7,1.7,5.3c1.1,1.6,2.6,2.8,4.4,3.7c1.8,0.8,3.8,1.2,5.7,1c2-0.2,3.8-0.9,5.4-2c35.7-25.6,70.1-49,85.9-40.5
	c22.2,12.3,47.8,33.6,74,54.8c1.6,1.3,3.5,2.1,5.6,2.3c2.1,0.2,4.2-0.1,6-1c1.9-0.9,3.4-2.3,4.5-4c1-1.7,1.5-3.7,1.4-5.6
	l-10.7-176.9c-12.5,2.6-26.5,3.1-37.5,7.9c-17.5,7.3-32.1,27.3-51.5,29.2"/>
<path fill="#82C832" d="M360.1,149.1c-2.9-18,6.2-41.4-4.2-59.2c-9-15.3-34-20.1-49.4-34.4c-17.7-16.6-26.8-42.1-45.3-50.4
	c-21.4-9.6-46.6,1.7-67.8,1.4c-22.4-0.3-47.3-11.8-67.6-3.6c-20.4,8.2-30.7,33.9-47.3,48.4C61.9,65.9,34.9,72.5,23.7,91.1
	s-4.2,45.5-7.9,66.7c-3.7,21.1-20,44.3-14.4,65.8c5.3,20,29.6,32.2,44.9,50.2C59.2,289,65.2,315.6,86.3,328
	c5.4,3.1,11.5,4.9,17.7,5.3c-1.3-55.1-2.6-110.9-3-153.9c0-5.2,2-10.1,5.6-13.9c3.6-3.7,8.6-5.9,13.8-6l151.6-3.6
	c2.9-0.1,5.8,1,7.9,3c2.2,2,3.4,4.7,3.6,7.6l8.4,149.6c7.3-1.2,14.2-4.2,20-8.8c14.8-12.4,14.9-38,25.1-54.1
	c10.2-16.1,33.2-28,37.4-46.7C378.8,188,363.3,168.4,360.1,149.1z"/>
<path fill="#507800" d="M272.5,156.4l-155,2.8c-5.1,0.1-9.4,3.8-13,7.5c-3.6,3.7-5.3,5.3-5.2,10.4c0.4,42.8,3.9,101.5,5.2,156.2
	c13.9,1.4,32-2.2,44.1,0.7c19.2,4.6,37,21.9,55.6,20c19.2-1.9,33.5-22.7,50.8-30.4c10.9-4.8,24.7-5.3,37-8.2l-8.2-148.7
	c-0.1-2.9-1.4-5.6-3.5-7.5c-2.1-2-4.9-3-7.8-3"/>
</svg>
