<?xml version="1.0" encoding="utf-8"?>
<!-- Generator: Adobe Illustrator 24.2.3, SVG Export Plug-In . SVG Version: 6.00 Build 0)  -->
<svg version="1.1" id="Слой_1" xmlns="http://www.w3.org/2000/svg" xmlns:xlink="http://www.w3.org/1999/xlink" x="0px" y="0px"
	 width="666.7px" height="500px" viewBox="0 0 666.7 500" enable-background="new 0 0 666.7 500" xml:space="preserve">
<path fill="#78A0BE" d="M300.2,23.1c-50.7,54.4,20.9,143.3,89.7,80.9c11.5-10.6,18.5-25,19.7-40.4c1.2-15.4-3.5-30.6-13.2-42.8
	c-5.6-6.4-12.6-11.5-20.4-15.1c-7.8-3.6-16.3-5.5-24.9-5.7C330.6-0.7,311.2,11.5,300.2,23.1"/>
<path fill="#78A0BE" d="M260.1,152.2c-24.1,1.6-52.2,8.1-64.1,33c-11.1,23.1-3.3,50.3,5.7,72.6c13.5,33.3,29.9,65.4,48.9,96.1
	c22.5,36.1,50.4,70.6,86,78.9c36.5,8.4,74.6-12.7,101.4-44.9c26.7-32.3,43.2-75.1,56.4-118.4c5.4-17.5,10.4-36.3,6.7-55.5
	c-8.4-44.4-65.1-47-94.9-52.4c-47.9-9.7-97-12.8-145.8-9.2"/>
<path fill="#82C832" d="M431.1,424.9c7.3,15.3,51.4,68.8,66.5,73.7c18.5,5.9,36.9-8,51.9-21.2c27.7-24.2,55.4-48.4,80.7-75.4
	c12.8-12.5,23.2-27.2,30.7-43.3c6.9-16.7,8.4-37,0.3-53c-10.9-22.3-83.1-53-105.8-58.7c-42.2-10.6-151.9-55.1-166.1,16
	c-12.8,62,23.4,122.3,42.2,161.8"/>
<path fill="#FFA046" d="M174.4,488c19,0,31.1-18.2,40.7-35.5c17.4-31.9,35.2-63.9,49.7-98.1c7.8-16.4,12.6-34.1,14.2-52.1
	c1-18.8-4-39.6-16.6-53.6c-17.4-19.4-92.9-30.8-115.4-30.4C105.3,219.2-8.7,204,0.5,279.9c8,66,119.9,208.2,174,208"/>
<path fill="#82C832" d="M533.9,101.7c-19.6,11.6-31.4,35.6-25.6,57.2c5.8,21.6,26.6,36.1,48.6,40.3c9.7,2,19.8,1.9,29.4-0.1
	c9.7-2.1,18.8-6.2,26.8-12c7.8-6,13.8-13.9,17.4-22.9c3.5-9,4.5-18.9,2.7-28.4C624.1,95.3,566.7,82.4,533.9,101.7z"/>
<path fill="#FFA046" d="M78.3,83.8c-22.9,21.4-23,61.6,0,83.2c23,21.6,63.9,20.5,85.4-2.3C214.3,110.9,132,33.4,78.3,83.8z"/>
<path fill="#507800" d="M494.3,269.4c4.1-12.1,6.7-24.6,7.8-37.3c-47.5-12-103-18.5-113.2,31.1c-10.8,52.3,13.3,103.4,32.4,141.8
	c6-5.3,11.5-11.1,16.6-17.2C464.5,355.4,481.1,312.6,494.3,269.4"/>
<path fill="#507800" d="M191.6,221.9c2,11.8,5.5,23.4,10.2,34.5c13.5,33.3,29.8,65.5,48.8,96.1c2.8,4.6,5.6,9,8.6,13.4
	c1.9-4.2,3.8-8.5,5.6-12.7c7.8-16.4,12.6-34.1,14.2-52.1c1-18.8-4-39.6-16.6-53.6C251.9,235.7,220.1,226.9,191.6,221.9z"/>
</svg>
