<svg width="64" height="64" viewBox="0 0 64 64" fill="none" xmlns="http://www.w3.org/2000/svg">
<g clip-path="url(#clip0)">
<path d="M55.1429 25.692C56.3053 26.0509 57.4479 26.4777 58.5478 26.9988C60.4584 27.9034 62.6944 29.1396 63.6494 31.1314C64.4558 32.8138 63.7608 34.5133 62.496 35.7437C62.0299 36.1974 61.508 36.5919 60.9623 36.9443C57.3665 39.2671 65.0308 34.3147 60.9623 36.9443C56.8143 39.6238 51.7815 40.7442 46.9691 41.5329C45.8492 41.7165 44.6966 41.9384 43.501 42.0943C42.9833 42.1621 41.9858 42.3401 41.6502 41.7729C41.4638 41.4576 41.5147 41.0543 41.51 40.7043C41.5054 40.3494 41.4898 39.9866 41.5622 39.6373C41.7491 38.7346 42.5927 38.5999 43.3853 38.5325C48.1923 38.1219 52.9146 37.0488 57.2975 34.9959C58.8744 34.2573 60.1981 32.9798 59.7841 31.0802C59.4158 29.3905 57.5945 28.7215 56.2205 28.029C55.1623 27.496 54.085 27.1375 52.9832 26.7149C52.6502 26.5874 52.3005 26.387 52.2273 26.007C52.1642 25.6813 52.2713 24.9327 52.6786 24.9556C53.3205 24.9919 55.1429 25.692 55.1429 25.692Z" fill="white"/>
<path d="M16.9844 27.9552C17.5219 28.2339 18.7563 28.7514 19.9906 28.7514C21.5633 28.7514 22.3598 27.9948 22.3598 27.0194C22.3598 25.7452 21.0857 25.1679 19.7516 25.1679H18.5175V22.9979H19.6919C20.7074 22.9781 22.0015 22.5996 22.0015 21.5046C22.0015 20.728 21.3644 20.1505 20.0902 20.1505C19.0352 20.1505 17.92 20.6086 17.3826 20.9274L16.7653 18.7372C17.5418 18.2392 19.0948 17.7619 20.7671 17.7619C23.5343 17.7619 25.0674 19.215 25.0674 20.9869C25.0674 22.361 24.2909 23.4357 22.6983 23.9934V24.0333C24.2513 24.3118 25.5053 25.4864 25.5053 27.1789C25.5053 29.4687 23.4947 31.1409 20.2096 31.1409C18.5372 31.1409 17.1238 30.7027 16.3672 30.2252L16.9844 27.9552ZM35.7576 20.1305C35.4193 20.1109 35.0609 20.1305 34.5829 20.1707C31.8952 20.3895 30.7005 21.7633 30.3621 23.2765H30.4219C31.0589 22.6194 31.9549 22.2413 33.1694 22.2413C35.3393 22.2413 37.171 23.7741 37.171 26.4619C37.171 29.0302 35.2001 31.1406 32.3928 31.1406C28.9486 31.1406 27.2562 28.5723 27.2562 25.4862C27.2562 23.0573 28.1522 21.0265 29.5456 19.7323C30.8401 18.5578 32.5123 17.9207 34.5431 17.8211C35.1004 17.7815 35.4588 17.7815 35.7576 17.8012V20.1305ZM34.1051 26.621C34.1051 25.4267 33.4681 24.3916 32.1741 24.3916C31.3577 24.3916 30.6808 24.8892 30.3821 25.5463C30.3024 25.7053 30.2629 25.9444 30.2629 26.3029C30.3227 27.6767 30.9794 28.9108 32.353 28.9108C33.428 28.9107 34.1051 27.9353 34.1051 26.621ZM48.1002 24.3916C48.1002 28.393 46.4875 31.1406 43.1826 31.1406C39.8378 31.1406 38.3646 28.1341 38.3446 24.4709C38.3446 20.728 39.9375 17.7617 43.2824 17.7617C46.7463 17.7617 48.1002 20.8476 48.1002 24.3916ZM41.3908 24.4709C41.371 27.4376 42.0877 28.8512 43.2621 28.8512C44.4371 28.8512 45.0741 27.3775 45.0741 24.4312C45.0741 21.5643 44.4567 20.0511 43.2424 20.0511C42.1273 20.0511 41.371 21.4648 41.3908 24.4709Z" fill="white"/>
<path d="M50.7713 16.75C49.664 16.75 48.7681 17.65 48.7681 18.7576C48.7681 19.8647 49.664 20.7608 50.7713 20.7608C51.8787 20.7608 52.7787 19.8648 52.7787 18.7576C52.7786 17.65 51.8786 16.75 50.7713 16.75ZM50.7713 19.9517C50.112 19.9517 49.5769 19.4167 49.5769 18.7576C49.5769 18.0941 50.112 17.5591 50.7713 17.5591C51.4349 17.5591 51.97 18.0941 51.97 18.7576C51.9699 19.4167 51.4349 19.9517 50.7713 19.9517Z" fill="white"/>
<path d="M37.9423 40.8557L30.9087 34.4591V39.3386C30.9087 39.3383 30.6984 39.3365 30.5942 39.3322C29.2876 39.2819 27.9844 39.1743 26.6795 39.0885C21.4046 38.7402 16.1421 38.1971 11.0482 36.7167C9.8997 36.383 8.7663 35.9877 7.6898 35.463C6.64232 34.9525 5.5255 34.3233 4.75967 33.427C4.1601 32.7252 3.88438 31.8265 4.25571 30.9475C4.69185 29.9148 5.71484 29.2002 6.63733 28.6339C7.71326 27.9739 8.90101 27.5142 10.0808 27.0775C10.7185 26.8421 11.3609 26.6197 12.0077 26.4104C12.3825 26.289 12.8847 26.1796 13.0673 25.7812C13.2126 25.4643 13.1534 24.7188 12.745 24.7188C11.5706 24.7182 8.19857 25.8986 8.19857 25.8986C6.00959 26.6254 3.88843 27.6085 2.09442 29.0782C0.501147 30.3839 -0.650051 32.2913 0.409681 34.3116C1.47186 36.3366 3.85857 37.6027 5.87507 38.4744C8.22052 39.4877 10.7011 40.2191 13.187 40.795C18.2591 41.97 23.455 42.4038 28.6431 42.6704C29.3986 42.7087 30.2493 42.7204 30.9087 42.8007V47.2502L37.9423 40.8557Z" fill="white"/>
</g>
<defs>
<clipPath id="clip0">
<rect width="64" height="64" fill="white"/>
</clipPath>
</defs>
</svg>
