<?xml version="1.0" encoding="utf-8"?>
<!-- Generator: Adobe Illustrator 25.2.3, SVG Export Plug-In . SVG Version: 6.00 Build 0)  -->
<svg version="1.1" id="Слой_1" xmlns="http://www.w3.org/2000/svg" xmlns:xlink="http://www.w3.org/1999/xlink" x="0px" y="0px"
	 width="500px" height="500px" viewBox="0 0 500 500" enable-background="new 0 0 500 500" xml:space="preserve">
<defs>
	<filter id="Adobe_OpacityMaskFilter" filterUnits="userSpaceOnUse" x="0" y="0" width="500" height="500">
		<feColorMatrix  type="matrix" values="1 0 0 0 0  0 1 0 0 0  0 0 1 0 0  0 0 0 1 0"/>
	</filter>
</defs>
<mask maskUnits="userSpaceOnUse" x="0" y="0" width="500" height="500" id="mask0_1_">
	<path fill="#82C832" filter="url(#Adobe_OpacityMaskFilter)" d="M250,83.3c22.1,0,43.3,8.8,58.9,24.4
		c15.6,15.6,24.4,36.8,24.4,58.9s-8.8,43.3-24.4,58.9C293.3,241.2,272.1,250,250,250s-43.3-8.8-58.9-24.4
		c-15.6-15.6-24.4-36.8-24.4-58.9s8.8-43.3,24.4-58.9C206.7,92.1,227.9,83.3,250,83.3z M250,291.7c92.1,0,166.7,37.3,166.7,83.3
		v41.7H83.3V375C83.3,329,157.9,291.7,250,291.7z"/>
</mask>
<g mask="url(#mask0_1_)">
	<rect fill="#82C832" width="500" height="500"/>
</g>
</svg>
