<svg width="36" height="36" viewBox="0 0 36 36" fill="none" xmlns="http://www.w3.org/2000/svg">
<g clip-path="url(#clip0)">
<path fill-rule="evenodd" clip-rule="evenodd" d="M26.7653 30.5661C30.5892 28.3932 35.2299 22.0294 34.1395 16.7056C33.4981 13.574 30.8205 9.07434 25.2952 10.6038C20.906 11.8188 20.5463 14.3991 20.3626 16.4154C20.4004 18.1066 18.4078 21.0323 16.4433 21.1219C13.5802 21.2525 10.7074 26.6117 14.8238 30.3079C18.1859 33.3269 24.7327 31.9912 26.7653 30.5661ZM27.6747 19.7902C28.8829 19.8379 29.903 18.8483 29.9531 17.5797C30.0032 16.3112 29.0644 15.2442 27.8562 15.1964C26.6479 15.1487 25.6278 16.1384 25.5777 17.4069C25.5276 18.6754 26.4664 19.7424 27.6747 19.7902Z" fill="#FFA046"/>
<path fill-rule="evenodd" clip-rule="evenodd" d="M19.2897 3.85082C15.3084 3.02035 8.07813 4.59276 5.38826 8.94451C3.80595 11.5044 2.71851 16.2546 7.43489 18.5695C11.1815 20.4083 13.0851 18.8415 14.5069 17.5576C15.5698 16.3636 18.7987 15.5547 20.1832 16.6922C22.2011 18.35 27.5907 16.3936 27.1892 11.321C26.8613 7.17798 21.5798 4.10527 19.2897 3.85082ZM11.7399 10.7564C10.9545 9.98556 9.6286 10.0479 8.77832 10.8956C7.92805 11.7432 7.87544 13.0553 8.6608 13.8261C9.44617 14.5968 10.7721 14.5345 11.6224 13.6869C12.4727 12.8392 12.5253 11.5272 11.7399 10.7564Z" fill="#78A0BE"/>
<path fill-rule="evenodd" clip-rule="evenodd" d="M27.0086 10.3086C26.4707 10.3412 25.8996 10.4364 25.2944 10.6039C20.9051 11.8189 20.5454 14.3991 20.3618 16.4155C20.3646 16.5401 20.3563 16.6714 20.3379 16.8078C22.4624 18.2518 27.5808 16.2689 27.1892 11.3209C27.1618 10.9757 27.1001 10.6379 27.0086 10.3086Z" fill="#507800"/>
<path d="M7.74033 20.2141C6.38065 20.0789 4.95243 20.8241 4.46562 22.077C3.97882 23.3299 4.46953 24.7757 5.39001 25.761C5.79043 26.203 6.27916 26.5577 6.82358 26.8012C7.368 27.0447 7.95558 27.1714 8.54706 27.173C9.13867 27.1622 9.71191 26.9911 10.2048 26.6781C10.6977 26.3651 11.0915 25.9222 11.3436 25.3972C12.3422 23.1131 10.017 20.4462 7.74033 20.2141Z" fill="#82C832"/>
</g>
<defs>
<clipPath id="clip0">
<rect width="36" height="36" fill="white"/>
</clipPath>
</defs>
</svg>
