<svg width="36" height="36" viewBox="0 0 36 36" fill="none" xmlns="http://www.w3.org/2000/svg">
<path d="M20.7821 22.4753C20.5784 22.0229 20.4966 18.9894 20.4811 18.0914C20.4501 16.4325 20.4183 14.7668 20.3859 13.0944C19.3257 11.6059 18.509 10.6061 18.281 10.6061C17.4333 10.6332 15.5409 14.0535 15.5409 14.0535C15.5409 14.0535 11.3643 7.3125 10.1271 7.3125C8.88979 7.3125 -0.195974 24.2827 0.00322672 25.0269C0.262188 25.9793 1.23606 26.5063 2.13246 26.8796C7.65528 29.1634 13.6952 29.814 19.5625 28.7571C21.6364 28.3861 26.3597 27.7731 27.5306 25.6874C27.8404 25.131 25.8484 21.5207 23.6284 17.9715L23.593 22.1699C23.593 22.7105 20.9835 22.9232 20.7821 22.4798" fill="#78A0BE"/>
<path d="M31.7933 10.5355C31.7933 10.5355 35.1262 7.5887 34.9796 7.03497C34.8331 6.48125 26.3293 6.88688 22.3334 6.9899C21.7403 7.00492 21.0841 7.04785 20.6737 7.45134C20.2633 7.85483 20.2407 8.50299 20.252 9.07817C20.2821 10.509 20.3114 11.9398 20.34 13.3706C21.3209 14.6583 22.5071 16.3195 23.6368 18C23.6458 16.8067 23.6541 15.6141 23.6616 14.4223C27.8673 14.4373 35.1262 14.6197 35.4216 14.066C35.717 13.5123 31.7933 10.529 31.7933 10.529" fill="#FFA046"/>
<path d="M20.349 13.3594C20.3829 14.9111 20.3167 17.1744 20.349 18.7389C20.3675 19.5853 20.4529 22.425 20.663 22.8397C20.873 23.2545 23.5901 23.0513 23.5947 22.5498L23.6247 17.9257C22.4705 16.2689 22.0977 15.6091 21.0935 14.3438" fill="#507800"/>
</svg>
