<svg width="36" height="36" viewBox="0 0 36 36" fill="none" xmlns="http://www.w3.org/2000/svg">
<path d="M26.9031 14.8863C27.6655 15.852 28.6312 16.5635 29.4444 17.4276C31.02 19.1048 31.6299 21.2395 31.4775 23.3742C31.3758 25.0007 30.9819 26.9455 30.1687 28.3178C29.7621 29.0294 27.2098 32.777 24.9209 32.777H17.7544H13.1554C9.77475 32.777 9.8764 30.0324 9.77475 29.3717C9.57144 28.0502 9.77475 26.7796 10.2322 25.5089C10.6896 24.1874 12.8887 22.4886 13.3461 21.1671C13.8544 19.744 13.7527 18.8507 13.3461 17.4276C12.7362 15.3437 10.2322 13.1074 9.6731 11.0235C8.96153 8.58385 8.75823 6.34751 10.5371 4.31447C11.8586 2.84051 13.8408 1.87482 15.823 1.72234C17.1953 1.56986 18.466 1.92564 19.635 2.63721C20.499 3.14547 21.2106 4.16199 21.9222 4.87355C22.9895 5.9409 24.6668 7.08416 25.8358 8.04986C27.4114 9.42216 28.7329 10.6214 27.7672 12.7052C27.2433 13.4632 26.9031 13.4632 25.8358 13.7139C25.9374 14.0697 26.649 14.5813 26.9031 14.8863Z" fill="#FFA046"/>
<path d="M21.9332 20.6146C21.3218 21.5974 22.1364 23.8966 23.4071 24.8227C23.8244 25.1283 24.2611 25.2897 24.6703 25.3706C25.3353 25.5021 26.4417 24.8175 26.0498 23.4114C25.7491 22.3175 24.9682 21.1893 24.1154 20.5793C23.2676 19.977 22.3425 19.9619 21.9332 20.6146Z" fill="white"/>
<path d="M24.688 25.3633C25.7557 25.7281 27.4955 24.5731 27.878 23.2648C28.0049 22.8349 27.9988 22.4143 27.9315 22.0332C27.8223 21.414 26.8487 20.5511 25.7487 21.1623C24.8916 21.634 24.1667 22.5417 23.9201 23.4177C23.6786 24.2877 23.9778 25.1181 24.688 25.3633Z" fill="white"/>
<path d="M4.20703 13.6175C4.20703 13.6175 3.22748 16.1906 5.90446 17.4863C5.90446 17.4863 6.12116 16.745 8.71158 15.6561C11.302 14.5672 13.6774 12.9184 13.6774 12.9184C13.6774 12.9184 17.1541 12.0767 17.3664 9.48797C17.3802 9.27898 17.3772 9.00592 17.2933 8.68555C17.2933 8.68555 17.0159 6.8412 15.3517 5.97605C14.8834 5.75632 14.3678 5.61744 13.6767 5.59295C12.5036 5.55773 11.2695 5.81235 10.2976 6.546C9.72399 6.97002 9.17015 7.73117 9.01752 8.45577C8.86488 9.18036 5.90446 11.3041 4.20703 13.6175Z" fill="#82C832"/>
<path d="M17.5387 23.8793C17.2921 24.619 17.2921 23.8793 17.2921 23.8793C17.7853 23.8793 16.218 22.6575 16.218 22.6575C15.5661 21.9067 14.8263 21.4135 14.8263 21.4135C14.3332 20.9204 13.6756 20.5095 13.6756 20.5095C13.6756 20.5095 12.119 19.2862 10.7135 17.4176L7.73227 13.936C8.11083 14.8497 4.27935 12.5002 4.27937 15.7422C4.27937 15.7422 5.12836 17.3871 7.11055 19.1185L12.1828 22.6575L13.2019 23.4932C13.9971 24.5695 15.0288 25.7537 16.2179 26.4668C16.992 26.9623 17.9764 27.2743 18.5796 26.2636C19.0751 25.4895 18.7815 24.978 18.3539 24.4118C18.1691 24.1277 17.7816 24.1613 17.5387 23.8793Z" fill="#82C832"/>
<path fill-rule="evenodd" clip-rule="evenodd" d="M12.298 22.7954L13.2016 23.5363C13.9967 24.6127 15.0284 25.7968 16.2175 26.51C17.5376 27.5781 20.9897 25.6054 18.5239 23.3863C17.6147 22.3722 16.0582 21.4136 16.0582 21.4136C15.0719 20.5526 13.6752 20.5526 13.6752 20.5526C13.6752 20.5526 13.6373 20.5228 13.568 20.4655C13.5137 20.6999 13.4404 20.9459 13.346 21.2101C13.1766 21.6995 12.7682 22.2407 12.298 22.7954ZM11.5142 14.3017C10.734 13.2106 9.95541 12.1191 9.673 11.0665C9.37018 10.0282 9.15941 9.02681 9.1543 8.06222C9.39263 7.48295 9.83877 6.92816 10.2976 6.58902C11.2694 5.85537 12.5035 5.60076 13.6766 5.63598C14.3677 5.66047 14.8833 5.79935 15.3516 6.01908C17.0158 6.88422 17.2932 8.72858 17.2932 8.72858C17.3771 9.04894 17.3801 9.32201 17.3664 9.531C17.154 12.1197 13.6773 12.9614 13.6773 12.9614C13.6773 12.9614 12.7926 13.5755 11.5142 14.3017Z" fill="#507700"/>
</svg>
