<?xml version="1.0" encoding="utf-8"?>
<!-- Generator: Adobe Illustrator 24.0.0, SVG Export Plug-In . SVG Version: 6.00 Build 0)  -->
<svg version="1.1" id="Слой_1" xmlns="http://www.w3.org/2000/svg" xmlns:xlink="http://www.w3.org/1999/xlink" x="0px" y="0px"
	 width="455px" height="500px" viewBox="0 0 455 500" enable-background="new 0 0 455 500" xml:space="preserve">
<g>
	<path fill="#82C832" d="M341.3,420.4c40.7,0.5,86.3-36.3,96.7-73.9c-18.7,0-44.1-3.4-62.6-5.7c-1,7.4-8.1,27.3-11.4,34.1
		C356.3,391.5,352.6,405.8,341.3,420.4z"/>
	<path fill="#FFA046" d="M419,294.1c22.5-6.5,40.9-6.6,34.8-32.6C430.8,162,384,62.5,281.7,17.7c-94.5-41.6-215.7-9-256,86.5
		c-41.2,97.9-34.1,225.1,30.2,312.7c27.7,37.8,68,74,117.5,81.4c25.7,3.7,51.9,1.3,76.4-7.1c24.5-8.4,46.5-22.6,64.2-41.2
		c10.5-10.9,20.4-22.4,29.5-34.5c-2.9,0-5.8-0.2-8.7-0.6c-21.6-3.3-41.1-14.3-54.9-31c-13.8-16.5-21.1-58.4-21.1-58.4
		s69.5,12.1,83,14c11.7,1.6,23.4,3.3,35.2,4.5c2.3-16.3,1.3-31.2,7.3-37.5C392,298.6,408.7,297.2,419,294.1z M290.5,165.1
		c-1.3,0.5-2.7,0.8-4.1,0.8c-1.4,0-2.8-0.3-4.1-0.8c-1.3-0.5-2.5-1.3-3.4-2.3c-1-1-1.8-2.1-2.3-3.4c-3.5-8.1-9.4-15-17.1-19.6
		c-7.6-4.6-16.5-6.8-25.5-6.2c-9,0.6-17.5,3.9-24.4,9.5c-6.9,5.6-11.9,13.1-14.3,21.6c-0.6,2.2-1.9,4.1-3.8,5.5
		c-1.8,1.4-4.1,2.1-6.4,2.1c-0.9,0-1.7-0.1-2.5-0.3c-2.6-0.7-4.9-2.3-6.3-4.6c-1.4-2.3-1.8-5-1.1-7.6c3.5-12.7,10.9-24,21.3-32.3
		c10.3-8.3,23.1-13.3,36.4-14.1c13.4-0.9,26.6,2.4,38,9.3c11.4,6.9,20.3,17.1,25.4,29.3c0.5,1.2,0.8,2.6,0.7,3.9
		c0,1.3-0.3,2.6-0.9,3.9c-0.5,1.2-1.3,2.3-2.3,3.2C293,163.9,291.8,164.6,290.5,165.1z"/>
	<path fill="#507800" d="M255.9,323.9c0,0,12.4,48.1,25.9,64.7c13.2,16.8,32,28,52.7,31.3c2.8,0.4,5.6,0.6,8.4,0.6
		c10.5-15.5,19.4-32.1,26.6-49.6c3-7.2,4.9-22.2,5.8-30c-11.3-1.5-17.2-4.3-28.4-5.7c-13.3-1.9-65.1-8.5-65.1-8.5"/>
</g>
</svg>
