<?xml version="1.0" encoding="utf-8"?>
<!-- Generator: Adobe Illustrator 25.2.3, SVG Export Plug-In . SVG Version: 6.00 Build 0)  -->
<svg version="1.1" id="Слой_1" xmlns="http://www.w3.org/2000/svg" xmlns:xlink="http://www.w3.org/1999/xlink" x="0px" y="0px"
	 width="647.1px" height="500px" viewBox="0 0 647.1 500" enable-background="new 0 0 647.1 500" xml:space="preserve">
<path fill="#507800" d="M368.9,100.6c-20.2,18-17.5,47.9-11.9,72.2c15,65.1,58.7,142.1,106.9,187.7c32.2,29.3,65.2,26.1,94.9,8.2
	c-22.6-91-72.2-192.1-132.5-275c-19.2-7.5-39.3-9.1-57.2,6.9"/>
<path fill="#FFA046" d="M469.6,340.2c-40.9-38.7-78-104.2-90.7-159.5c-4.7-20.6-7.1-46,10.1-61.4c15.2-13.6,32.2-12.3,48.5-5.9
	c-19.6-27.4-41.7-52.9-66-76.4C244.8-78.1,110.3,102.3,58.9,210.6c-29.9,63-91.3,201-37.7,265.3c38.3,45.9,108.4,16.8,148.8-9.2
	c73.1-47,118.2-66.3,195.8-16.7c48,30.7,112.9,74.7,166.2,27.1c34.2-30.5,29.6-81.2,20.1-122.3c-0.6-2.5-1.3-5.1-1.9-7.6
	C524.9,362.5,496.9,364.8,469.6,340.2z"/>
<path fill="#82C832" d="M636.9,129.6c-18.1-22.7-51.3-8.3-70.4,4.5c-34.6,23.1-55.9,32.7-92.7,8.3c-10.3-7.4-21.2-13.8-32.7-19.1
	c48.5,69.4,88.1,153.8,106.1,229.7c31.4-19.9,58.1-62,72-92.5c13.8-30.5,43.1-99.3,17.8-130.9"/>
</svg>
