<?xml version="1.0" encoding="utf-8"?>
<!-- Generator: Adobe Illustrator 25.2.3, SVG Export Plug-In . SVG Version: 6.00 Build 0)  -->
<svg version="1.1" id="Слой_1" xmlns="http://www.w3.org/2000/svg" xmlns:xlink="http://www.w3.org/1999/xlink" x="0px" y="0px"
	 width="423px" height="500px" viewBox="0 0 423 500" enable-background="new 0 0 423 500" xml:space="preserve">
<path fill="#78A0BE" d="M417.5,242.2C382.5,116.3,211.7,46.1,105.8,112.3c-35.2,22-61.7,55.1-82.9,90.9
	c-34.6,58.1-36.8,213.7,63.2,267.5c78.1,42.1,177,38.5,247.2-7.2c70.2-45.7,107.5-137.2,84.2-221.2"/>
<path fill="#82C832" d="M131.2,44.7c-3.8-20.5,9.8-40.1,30.2-43.9c21.7-4,42.2,11.4,44.3,33.4l21.8,222.5c1.4,14.6-8.6,27.8-23,30.5
	c-15.3,2.8-30-7.3-32.9-22.6L131.2,44.7z"/>
<path fill-rule="evenodd" clip-rule="evenodd" fill="#507800" d="M210.9,87.2l16.6,169.4c1.4,14.6-8.6,27.8-23,30.5
	c-15.3,2.8-30-7.3-32.9-22.6L140.6,96C162.9,88.6,186.8,85.9,210.9,87.2z"/>
<path fill="#82C832" d="M230.8,347.8c-12.9-8-17.3-24.7-10.1-38c8.6-16,29.8-20.1,43.7-8.4L408,421.7c6.4,5.4,7.5,14.8,2.4,21.5
	c-4.9,6.4-13.9,8-20.7,3.8L230.8,347.8z"/>
<path fill-rule="evenodd" clip-rule="evenodd" fill="#507800" d="M390.1,406.7L264.4,301.4c-13.9-11.7-35.1-7.6-43.7,8.4
	c-7.2,13.3-2.8,30,10.1,38l137.9,86C376.5,425.4,383.7,416.3,390.1,406.7z"/>
<circle fill="#507800" cx="80" cy="362.4" r="29.5"/>
</svg>
