<?xml version="1.0" encoding="utf-8"?>
<!-- Generator: Adobe Illustrator 24.0.0, SVG Export Plug-In . SVG Version: 6.00 Build 0)  -->
<svg version="1.1" id="Слой_1" xmlns="http://www.w3.org/2000/svg" xmlns:xlink="http://www.w3.org/1999/xlink" x="0px" y="0px"
	 width="503px" height="500px" viewBox="0 0 503 500" enable-background="new 0 0 503 500" xml:space="preserve">
<g>
	<path fill="#FFA046" d="M247.5,192.3l-53.2,54.5c-9.4,9.6-10.1,31,15.8,58.7c25.9,27.6,44.7,22.6,53,14c8.4-8.6,8-25.5,55.3-54.5
		c47.3-29,80.5,13.3,128.1-29c47.6-42.3,94.6-95.8,8.4-184.1c-86.2-88.3-154.7-46-191.8-3.7C226.1,90.4,268.4,170.9,247.5,192.3z"/>
	
		<ellipse transform="matrix(0.7178 -0.6962 0.6962 0.7178 -164.7791 219.5667)" fill="#82C832" cx="188.5" cy="313.1" rx="76.8" ry="218.7"/>
	<path fill-rule="evenodd" clip-rule="evenodd" fill="#507700" d="M277.2,297.1c-12.5-14.9-26.1-29.9-40.7-44.9
		c-8.2-8.4-16.5-16.5-24.7-24.3l-20.9,21.4c-9.4,9.6-15.4,19.5,14.6,51.4c30.1,31.9,43.5,25.2,51.8,16.7L277.2,297.1z"/>
	<path fill-rule="evenodd" clip-rule="evenodd" fill="#78A0BE" d="M32.7,465.8c39.8,40.7,94.3,44.8,136.8,13.4
		c44.2-36.6,24.2-96.8-15.6-137.5c-39.8-40.7-99-52.1-131.8-18.5C-10.6,356.7-7,425.1,32.7,465.8z M58.5,437.6
		c27.1,23.5,59.6,21,79.9,0.2c20.3-20.8,13.6-51.2-11.5-76.9c-25.1-25.7-58.6-26.4-78.9-5.6C27.8,376,31.4,414.1,58.5,437.6z"/>
	<path fill-rule="evenodd" clip-rule="evenodd" fill="#507700" d="M192.8,413.2c-19.1-14.8-38.6-32.2-57.8-51.8
		c-20.1-20.6-37.9-41.6-52.8-62.1c24.6,2.5,50.7,15.5,71.3,36.6C175.4,358.1,191,386.4,192.8,413.2z"/>
</g>
</svg>
