<?xml version="1.0" encoding="utf-8"?>
<!-- Generator: Adobe Illustrator 24.0.0, SVG Export Plug-In . SVG Version: 6.00 Build 0)  -->
<svg version="1.1" id="Слой_1" xmlns="http://www.w3.org/2000/svg" xmlns:xlink="http://www.w3.org/1999/xlink" x="0px" y="0px"
	 width="500px" height="500px" viewBox="0 0 500 500" enable-background="new 0 0 500 500" xml:space="preserve">
<g>
	<path fill-rule="evenodd" clip-rule="evenodd" fill="#F4A13C" d="M323.9,109.8c-27-19.7-44.8-51.3-45.7-87
		C266,20.9,253.4,20,240.7,20C107.7,20,0,127.4,0,260c0,132.6,107.7,240,240.7,240C365,500,467.3,405.9,480,285.3
		c-26.2-13.4-46.4-36.7-55.6-65.1C368.2,214.6,324.2,167.4,323.9,109.8z M164.7,186.1c15.2,0,27.5-12.3,27.5-27.4
		c0-15.1-12.3-27.4-27.5-27.4s-27.5,12.3-27.5,27.4C137.3,173.8,149.5,186.1,164.7,186.1z M305.6,220.7c0,15.1-12.3,27.4-27.5,27.4
		c-15.2,0-27.5-12.3-27.5-27.4s12.3-27.4,27.5-27.4C293.3,193.4,305.6,205.6,305.6,220.7z M364.2,372.2c15.2,0,27.5-12.3,27.5-27.4
		c0-15.1-12.3-27.4-27.5-27.4c-15.2,0-27.5,12.3-27.5,27.4C336.7,360,349,372.2,364.2,372.2z M219.6,383.2
		c0,15.1-12.3,27.4-27.5,27.4c-15.2,0-27.5-12.3-27.5-27.4s12.3-27.4,27.5-27.4C207.3,355.8,219.6,368.1,219.6,383.2z M109.8,324.8
		c15.2,0,27.5-12.3,27.5-27.4c0-15.1-12.3-27.4-27.5-27.4c-15.2,0-27.5,12.3-27.5,27.4C82.4,312.5,94.6,324.8,109.8,324.8z"/>
	<ellipse fill="#78A0BE" cx="351.8" cy="29.9" rx="30" ry="29.9"/>
	<ellipse fill="#78A0BE" cx="397.3" cy="153.2" rx="22.7" ry="22.7"/>
	<ellipse fill="#78A0BE" cx="483.6" cy="217.6" rx="16.4" ry="16.3"/>
	<ellipse fill="#78A0BE" cx="460.9" cy="104.3" rx="13.6" ry="13.6"/>
</g>
</svg>
