<?xml version="1.0" encoding="utf-8"?>
<!-- Generator: Adobe Illustrator 25.2.3, SVG Export Plug-In . SVG Version: 6.00 Build 0)  -->
<svg version="1.1" id="Слой_1" xmlns="http://www.w3.org/2000/svg" xmlns:xlink="http://www.w3.org/1999/xlink" x="0px" y="0px"
	 width="508px" height="500px" viewBox="0 0 508 500" enable-background="new 0 0 508 500" xml:space="preserve">
<path fill="#82C831" d="M-0.6,395c0,6.1,2.4,12,6.7,16.3L87.9,493c4.3,4.3,10.2,6.7,16.3,6.7c6.1,0,12-2.4,16.3-6.7l56-56
	c7.4-7.4,7.4-19.5,0-26.9l-87.4-87.4c-7.4-7.4-19.5-7.4-26.9,0l-56,56C1.8,383-0.6,388.9-0.6,395z"/>
<path fill="#FEAA59" d="M499.2,152.7c12.7,12.1,11.6,32.7-2.3,43.4L219.3,408.3c-11.4,8.7-27.4,7.6-37.6-2.5l-79.3-79.3
	c-10-10-11.2-25.8-2.8-37.1l204.4-278c10.2-13.9,30.3-15.6,42.7-3.8L499.2,152.7z"/>
<path fill="#507800" d="M47,395c3.8-3.8,8.2-6.7,13.1-8.8s10.2-3.1,15.5-3.1c5.3,0,10.6,1,15.5,3.1c4.9,2,9.4,5,13.1,8.8
	c3.8,3.8,6.7,8.2,8.8,13.1c2,4.9,3.1,10.2,3.1,15.5c0,5.3-1,10.6-3.1,15.5c-2,4.9-5,9.4-8.8,13.1L47,395z"/>
<path fill="#FFFFFF" d="M317.7,141.7c-7.4-7.4-7.4-19.5,0-26.9l11.2-11.2c7.4-7.4,19.5-7.4,27,0l39.7,39.7c7.4,7.4,7.4,19.5,0,27
	l-11.2,11.2c-7.4,7.4-19.5,7.4-26.9,0L317.7,141.7z"/>
<path fill="#507800" d="M11.6,373.1l13.5-13.5l114.3,114.3l-13.5,13.5L11.6,373.1z"/>
</svg>
