<svg width="19" height="19" viewBox="0 0 19 19" fill="none" xmlns="http://www.w3.org/2000/svg">
<mask id="mask0" mask-type="alpha" maskUnits="userSpaceOnUse" x="2" y="0" width="15" height="17">
<path d="M15.0417 15.0415V5.5415H3.95833V15.0415H15.0417ZM12.6667 0.791504H14.25V2.37484H15.0417C15.4616 2.37484 15.8643 2.54165 16.1613 2.83858C16.4582 3.13552 16.625 3.53824 16.625 3.95817V15.0415C16.625 15.4614 16.4582 15.8642 16.1613 16.1611C15.8643 16.458 15.4616 16.6248 15.0417 16.6248H3.95833C3.07958 16.6248 2.375 15.9123 2.375 15.0415V3.95817C2.375 3.07942 3.07958 2.37484 3.95833 2.37484H4.75V0.791504H6.33333V2.37484H12.6667V0.791504ZM8.70833 7.12484H10.2917V9.49984H12.6667V11.0832H10.2917V13.4582H8.70833V11.0832H6.33333V9.49984H8.70833V7.12484Z" fill="#D7DBDE"/>
</mask>
<g mask="url(#mask0)">
<rect y="-0.791504" width="19" height="19" fill="#D7DBDE"/>
</g>
</svg>
