<svg width="20" height="19" viewBox="0 0 20 19" fill="none" xmlns="http://www.w3.org/2000/svg">
<mask id="mask0" mask-type="alpha" maskUnits="userSpaceOnUse" x="3" y="0" width="15" height="17">
<path d="M16.0387 15.0415V5.5415H4.9554V15.0415H16.0387ZM13.6637 0.791504H15.2471V2.37484H16.0387C16.4587 2.37484 16.8614 2.54165 17.1583 2.83858C17.4553 3.13552 17.6221 3.53824 17.6221 3.95817V15.0415C17.6221 15.4614 17.4553 15.8642 17.1583 16.1611C16.8614 16.458 16.4587 16.6248 16.0387 16.6248H4.9554C4.07665 16.6248 3.37207 15.9123 3.37207 15.0415V3.95817C3.37207 3.07942 4.07665 2.37484 4.9554 2.37484H5.74707V0.791504H7.3304V2.37484H13.6637V0.791504ZM9.7054 7.12484H11.2887V9.49984H13.6637V11.0832H11.2887V13.4582H9.7054V11.0832H7.3304V9.49984H9.7054V7.12484Z" fill="#D7DBDE"/>
</mask>
<g mask="url(#mask0)">
<rect x="0.99707" y="-0.791504" width="19" height="19" fill="#82C831"/>
</g>
</svg>
