<?xml version="1.0" encoding="utf-8"?>
<!-- Generator: Adobe Illustrator 25.2.3, SVG Export Plug-In . SVG Version: 6.00 Build 0)  -->
<svg version="1.1" id="Слой_1" xmlns="http://www.w3.org/2000/svg" xmlns:xlink="http://www.w3.org/1999/xlink" x="0px" y="0px"
	 width="498.7px" height="501px" viewBox="0 0 498.7 501" enable-background="new 0 0 498.7 501" xml:space="preserve">
<path fill-rule="evenodd" clip-rule="evenodd" fill="#F4A13C" d="M323.1,110.9c-26.9-19.7-44.7-51.3-45.6-87
	C265.3,22,252.8,21,240,21C107.5,21,0,128.4,0,261s107.5,240,240,240c124,0,226.1-94.1,238.7-214.7c-26.1-13.4-46.3-36.7-55.4-65.1
	C367.2,215.6,323.3,168.4,323.1,110.9z M164.3,187.1c15.1,0,27.4-12.3,27.4-27.4c0-15.1-12.3-27.4-27.4-27.4s-27.4,12.3-27.4,27.4
	C136.9,174.8,149.2,187.1,164.3,187.1z M304.8,221.7c0,15.1-12.3,27.4-27.4,27.4c-15.1,0-27.4-12.3-27.4-27.4
	c0-15.1,12.3-27.4,27.4-27.4C292.6,194.4,304.8,206.6,304.8,221.7z M363.2,373.2c15.1,0,27.4-12.3,27.4-27.4s-12.3-27.4-27.4-27.4
	c-15.1,0-27.4,12.3-27.4,27.4S348.1,373.2,363.2,373.2z M219,384.2c0,15.1-12.3,27.4-27.4,27.4c-15.1,0-27.4-12.3-27.4-27.4
	c0-15.1,12.3-27.4,27.4-27.4C206.8,356.8,219,369.1,219,384.2z M109.5,325.8c15.1,0,27.4-12.3,27.4-27.4c0-15.1-12.3-27.4-27.4-27.4
	c-15.1,0-27.4,12.3-27.4,27.4C82.1,313.5,94.4,325.8,109.5,325.8z"/>
<circle fill="#78A0BE" cx="350.9" cy="30.9" r="29.9"/>
<circle fill="#78A0BE" cx="396.2" cy="154.2" r="22.7"/>
<circle fill="#78A0BE" cx="482.3" cy="218.6" r="16.3"/>
<circle fill="#78A0BE" cx="459.7" cy="105.3" r="13.6"/>
</svg>
