<?xml version="1.0" encoding="utf-8"?>
<!-- Generator: Adobe Illustrator 24.0.0, SVG Export Plug-In . SVG Version: 6.00 Build 0)  -->
<svg version="1.1" id="Слой_1" xmlns="http://www.w3.org/2000/svg" xmlns:xlink="http://www.w3.org/1999/xlink" x="0px" y="0px"
	 width="533px" height="500px" viewBox="0 0 533 500" enable-background="new 0 0 533 500" xml:space="preserve">
<g>
	<path fill="#78A0BE" d="M297.5,316.7c-73.2-24.1-122.1-105.4-108.9-180.7c3.4-20.7,10.9-40.5,22.2-58.3
		c11.3-17.8,26.1-33.1,43.5-45C195.4,49.5,145.6,94.4,131.5,164c-6.9,36.4-1.6,74,14.9,107.2L37.8,384.3c-14.4,15-29.6,31.4-35.4,48
		c-6.9,20.2,2.5,33.9,11.7,45.4c10.7,13.4,24.4,27.4,47.9,20.2c17.2-5.2,34.5-20.5,50.2-34.9c38.9-35.6,77.1-72,114.6-109
		c5.4,2.7,10.9,5,16.5,7.1c39.2,14,82.2,13.8,123.4,8.4c31.2-4.2,63-11.6,87.9-30.7c15-11.8,27-27.1,34.7-44.5
		c-22,16-49.6,23-76.7,27.3C374.3,327.5,334.3,328.9,297.5,316.7z"/>
	<path fill="#82C832" d="M532.2,170.3c-5.4-49.1-28.9-94.4-66-127.1C436.6,17.7,399.4,2.6,360.4,0.3C321.3-2,282.6,8.6,250.2,30.5
		c31.4-9.1,64.6-10.1,96.5-2.7c31.9,7.4,61.3,22.8,85.4,44.9c38.9,36.1,62.9,85.3,67.3,138.1c2.4,28.3-2.3,56.7-13.8,82.7
		c1.5-1.1,2.9-2.2,4.2-3.4C524.2,262.2,536.4,214.2,532.2,170.3"/>
	<path fill="#507800" d="M499.7,210.7c-4.4-53.1-28.1-102.6-66.7-138.9c-24-22.1-53.2-37.7-84.8-45.1c-31.6-7.4-64.6-6.5-95.8,2.7
		c-17.3,12.1-32,27.6-43.3,45.5c-11.2,18-18.8,38-22.1,59c-13.1,76.3,35.5,158.4,108.3,182.8c36.6,12.3,74.5,15.6,112.6,9.4
		c26.9-4.2,59.7-11,81.6-27.2C500.9,272.8,502.2,239.1,499.7,210.7z"/>
</g>
</svg>
