<?xml version="1.0" encoding="utf-8"?>
<!-- Generator: Adobe Illustrator 25.2.3, SVG Export Plug-In . SVG Version: 6.00 Build 0)  -->
<svg version="1.1" id="Слой_1" xmlns="http://www.w3.org/2000/svg" xmlns:xlink="http://www.w3.org/1999/xlink" x="0px" y="0px"
	 width="423px" height="500px" viewBox="0 0 423 500" enable-background="new 0 0 423 500" xml:space="preserve">
<path fill="#78A0BE" d="M301.9,375c-17.7,15.6-40.7,30.5-63.5,24.2c-17.6-4.8-29.1-21.3-32.9-39.2c-0.8-3.9-1.3-7.9-1.3-11.8
	c-0.5-21.9,8.8-42.7,17.7-62.7l26.6-59.5c-7.3-7.6-14.7-14.9-22-21.8C215.5,109.2,196,0,196,0l-106,16.3c0,0,21.6,127.2,38.4,209.9
	c-10.8,15.4-21.3,31-31.3,46.9c-32.1,50.7-60,103.8-83.7,158.8c-2.6,5.7-5,11.5-7.3,17.3C0.9,462.4-4,478.7,4.8,490
	c8.8,11.3,27.2,10.9,42.3,8.8c111.8-16,222.8-36.8,332.9-62.6c10.4-2.4,23.3-7.3,23.8-17.7c1.1-21.1-32.9-61.8-61.2-91.9
	C331.7,344.7,318,361.1,301.9,375z"/>
<path fill="#82C832" d="M346.1,331.7c9.1-15.5,12.3-26.7,19.2-43.3c9.8-22.2,14.4-43.3,28.6-77.1c11.4-21.2,29.1-77.7,29.1-77.7
	s-85-40.1-113.9-47.1L292,124.4l56.6,22.8c2.4,1,4.3,2.9,5.3,5.2c1,2.4,1,5,0,7.3c-1,2.3-2.9,4.2-5.4,5.2c-2.4,1-5.1,0.9-7.5,0
	l-56.9-23l-11.4,24.9l53.1,21.4c2.4,1,4.3,2.9,5.3,5.2c1,2.4,1,5,0,7.4c-1,2.4-2.9,4.2-5.4,5.2c-2.4,1-5.2,1-7.6,0l-53.4-21.6
	l-24.4,51.4c29.9,30.3,57.7,52.9,57.7,52.9S326.3,311,346.1,331.7z"/>
<path fill="#507800" d="M201.9,351.8c0.1,3.9,0.5,7.9,1.4,11.7c4,17.7,16,34.1,34.3,38.8c23.8,6.2,47.8-8.5,66.2-24
	c16.7-13.8,31-30.1,42.3-48c-20.8-21-38.7-36.8-38.7-36.8s-31-36.9-62.3-67.5l-28.8,62.5C207,308.3,201.5,330.1,201.9,351.8z"/>
</svg>
