<?xml version="1.0" encoding="utf-8"?>
<!-- Generator: Adobe Illustrator 24.0.0, SVG Export Plug-In . SVG Version: 6.00 Build 0)  -->
<svg version="1.1" id="Слой_1" xmlns="http://www.w3.org/2000/svg" xmlns:xlink="http://www.w3.org/1999/xlink" x="0px" y="0px"
	 width="364px" height="500px" viewBox="0 0 364 500" enable-background="new 0 0 364 500" xml:space="preserve">
<g>
	<path fill="#78A0BE" d="M343.9,97.3c-9.1-43.4-25.4-69.8-68-71.6c0.6,9.6,0.7,19.3,0.2,29c-82.2,5.4-156.7,5.2-222.7,4.5
		c0.5-9.9,1-18.2,1.4-26.2c-14.5,2.7-28,7.9-38,18.4C-0.2,69.6-0.5,97.3,0.2,122c2.9,100.9,5.7,201.8,8.6,302.7
		c0.5,18.1,1.6,37.7,13.2,51.7c15.5,18.7,43.5,20.7,68.1,21l177.4,2.5c28.8,0.4,60.5-0.2,82.2-18.9
		C374,459.9,364.2,194.1,343.9,97.3z"/>
	<path fill="#FFA046" d="M270.5,25.6c1.9,0,3.8,0,5.5,0C275.1,11.5,273.7,0,273.7,0S95.5,2.4,57,0c-0.6,12.7-1.2,22.7-1.9,33
		c11.3-1.9,22.7-2.9,34.2-3c60.3-1.5,120.7-4.2,181.1-4.6"/>
	<path fill="#507800" d="M276.1,54.7c0.5-9.7,0.5-19.3-0.2-29c-1.8,0-3.6,0-5.5,0c-60.4,0.2-120.8,2.8-181.1,4.2
		c-11.6,0.1-23.1,1-34.5,2.9c-0.5,8-1,16.3-1.4,26.2c66,0.9,140.3,0.9,222.7-4.5"/>
	<path fill="#FFFFFF" d="M303,141.3c-1.8-7.5-8.9-14.8-20.8-17.6c-7.8-1.4-15.7-1.8-23.6-1.2l-158,5.1c-10.1,0.3-21,0.8-28.7,4.7
		c-9.3,4.7-10.7,12.7-11.4,19.8c-0.9,8.3-0.9,17.8,9.7,23.3c7.6,4,19,4.6,29.3,4.9c54.4,1.6,109,1.1,163.3-1.6
		c8.8-0.1,17.5-1.3,26-3.6c16.6-5.4,16.7-24.3,14.4-34"/>
	<path fill="#FFFFFF" d="M303,319.4c-1.8-7.5-8.9-14.8-20.8-17.6c-7.8-1.4-15.7-1.8-23.6-1.2l-158,5.1c-10.1,0.3-21,0.8-28.7,4.7
		c-9.3,4.7-10.7,12.7-11.4,19.8c-0.9,8.3-0.9,17.8,9.7,23.3c7.6,4,19,4.6,29.3,4.9c54.4,1.6,109,1.1,163.3-1.6
		c8.8-0.1,17.5-1.3,26-3.6c16.6-5.4,16.7-24.3,14.4-34"/>
	<path fill="#FFFFFF" d="M289.7,230.4c-1.8-7.5-8.9-14.8-20.8-17.6c-7.9-1.4-15.9-1.8-23.9-1.2l-157.8,5.1
		c-10.1,0.3-21,0.8-28.7,4.7c-9.3,4.7-10.7,12.7-11.4,19.8c-0.9,8.3-0.9,17.8,9.7,23.3c7.6,4,19,4.6,29.3,4.9
		c54.4,1.6,109,1.1,163.3-1.6c8.8-0.1,17.5-1.3,26-3.6C292,258.9,292.1,240,289.7,230.4"/>
</g>
</svg>
