<?xml version="1.0" encoding="utf-8"?>
<!-- Generator: Adobe Illustrator 25.2.3, SVG Export Plug-In . SVG Version: 6.00 Build 0)  -->
<svg version="1.1" id="Слой_1" xmlns="http://www.w3.org/2000/svg" xmlns:xlink="http://www.w3.org/1999/xlink" x="0px" y="0px"
	 width="528px" height="500px" viewBox="0 0 528 500" enable-background="new 0 0 528 500" xml:space="preserve">
<path fill-rule="evenodd" clip-rule="evenodd" fill="#82C832" d="M178.9,28.1C295.2-49,482.3,32.5,520.6,179.3
	c25.3,97.9-15.9,204.6-92.5,257.2c-77.3,52.6-185.6,57.1-270.9,8.2C47.5,382.4,50.4,200.8,87.9,133.4
	C111,91.8,140.6,53.3,178.9,28.1z M392.1,137.2c13.7-8.9,35.7,0.5,40.2,17.5c3,11.3-1.9,23.6-10.9,29.7c-9.1,6.1-21.8,6.6-31.9,0.9
	c-12.9-7.2-12.6-28.1-8.2-35.9C384.2,144.5,387.6,140.1,392.1,137.2z"/>
<path fill="#82C832" d="M173.5,354.1c7.6-0.7,16-1.6,24.9-4.2c5.7-1.6,15.2-0.7,18.1,0.5c5.7,2.3,11.8,3.8,18.3,4.4
	c23.5,2.1,49.2-7.3,70.4-25.7c37.7-32.7,48.2-81.6,23.9-111.5c-9.7-11.9-24.2-19.3-40.7-20.7c-23.5-2.1-49.2,7.3-70.4,25.7
	c-25.9,22.4-38.9,52.6-36.6,78.9c0.6,6.9-6.2,11.2-11.3,11.7c-15.6,1.4-36.9,3.3-58.9,22.3c-22.5,19.5-21.3,45.5-20.5,64.5
	c0.8,18.1,0.4,26.1-6.8,32.4c-8.1,7.1-18.4,9.4-30.2,12.1c-2.3,0.5-4.7,1.1-7.1,1.7C13.3,454,1.1,496.5-0.2,498.4c0,0,0,0.1,0,0.1
	c1.6,0,32.7-18.1,55.7-20.7c14.4-1.6,38.7-0.6,54.4-14.2c23-19.9,21.9-46.4,21-65.6c-0.8-17.7-0.4-25.5,6.3-31.3
	C149.4,356.2,160,355.3,173.5,354.1z"/>
<path fill-rule="evenodd" clip-rule="evenodd" fill="#507800" d="M131.1,417.8c-15.8-16.4-27.9-36-36.9-57.3c3-8.8,8.2-17.5,17-25.1
	c21.9-19,43.3-20.9,58.9-22.3l0,0c5.2-0.5,11.9-4.8,11.3-11.7c-2.3-26.3,10.7-56.5,36.6-78.9c21.3-18.4,46.9-27.8,70.4-25.7
	c16.6,1.5,31,8.8,40.7,20.7c24.3,29.9,13.8,78.8-23.9,111.5c-21.3,18.4-46.9,27.8-70.4,25.7c-6.5-0.6-12.6-2.1-18.3-4.4
	c-3-1.2-12.5-2.1-18.1-0.5c-8.9,2.6-17.4,3.5-24.9,4.2l0,0c-13.5,1.2-24.1,2.1-36.2,12.6c-6.7,5.8-7.1,13.6-6.3,31.3
	C131.2,404,131.5,410.8,131.1,417.8z"/>
</svg>
