<?xml version="1.0" encoding="utf-8"?>
<!-- Generator: Adobe Illustrator 24.2.1, SVG Export Plug-In . SVG Version: 6.00 Build 0)  -->
<svg version="1.1" id="Слой_1" xmlns="http://www.w3.org/2000/svg" xmlns:xlink="http://www.w3.org/1999/xlink" x="0px" y="0px"
	 width="2061px" height="930px" viewBox="0 0 2061 930" style="enable-background:new 0 0 2061 930;" xml:space="preserve">
<style type="text/css">
	.st0{fill:#F6F9FB;}
	.st1{opacity:6.000000e-02;fill:#82C831;enable-background:new    ;}
	.st2{opacity:0.1;fill:#FEAA59;enable-background:new    ;}
</style>
<path class="st0" d="M2061,930V334.6c0,0-186-139.5-358-164.3c-451.2-65-859,105-1187,64.8C318.8,210.9,11.5,4,11.5,4L0,483.6
	c0,0,28,371.2,28,446.4h920H2061z"/>
<path class="st1" d="M543.2,309.8c-54.7,131-6.3,472.2,251.4,579.7s721.5-9.8,743.4-222.9c50.8-262.9-198-297.1-434.1-448.3
	C829.5,42.5,597.8,178.7,543.2,309.8z"/>
<path class="st2" d="M914.7,192.3c106.4-131.3,213.2,34.6,361.4,47.8c124.9,11.1,328.1-71.2,395,63.8
	c58.4,118-281.8,506.2-515.8,485.5C921.3,768.5,808.3,323.5,914.7,192.3z"/>
</svg>
