<?xml version="1.0" encoding="utf-8"?>
<!-- Generator: Adobe Illustrator 25.2.3, SVG Export Plug-In . SVG Version: 6.00 Build 0)  -->
<svg version="1.1" id="Слой_1" xmlns="http://www.w3.org/2000/svg" xmlns:xlink="http://www.w3.org/1999/xlink" x="0px" y="0px"
	 width="500px" height="500px" viewBox="0 0 500 500" enable-background="new 0 0 500 500" xml:space="preserve">
<path fill="#82C831" d="M100.4,216.2c40,78.6,104.4,142.8,183.1,183.1l61.1-61.1c7.5-7.5,18.6-10,28.3-6.7
	c31.1,10.3,64.7,15.8,99.2,15.8c15.3,0,27.8,12.5,27.8,27.8v96.9c0,15.3-12.5,27.8-27.8,27.8C211.2,499.8-0.2,288.4-0.2,27.6
	c0-15.3,12.5-27.8,27.8-27.8h97.2c15.3,0,27.8,12.5,27.8,27.8c0,34.7,5.6,68.1,15.8,99.2c3.1,9.7,0.8,20.6-6.9,28.3L100.4,216.2z"/>
</svg>
