<?xml version="1.0" encoding="utf-8"?>
<!-- Generator: Adobe Illustrator 25.2.3, SVG Export Plug-In . SVG Version: 6.00 Build 0)  -->
<svg version="1.1" id="Слой_1" xmlns="http://www.w3.org/2000/svg" xmlns:xlink="http://www.w3.org/1999/xlink" x="0px" y="0px"
	 width="410px" height="500px" viewBox="0 0 410 500" enable-background="new 0 0 410 500" xml:space="preserve">
<path fill-rule="evenodd" clip-rule="evenodd" fill="#82C832" d="M52.7,424.2V450c0,35,22.1,50,57.1,50h250c35,0,50-15,50-50V50
	c0-25-25-50-55-50h-245C72.3,0,52.7,15,52.7,50v214H19.4c-10.8,0.1-19.6,8.8-19.6,19.7v120.9c0,10.8,8.7,19.6,19.5,19.6H52.7z
	 M19.4,404.6V283.7h294.4v120.9H19.4z M138.6,215.5H324c5.4,0,9.7-4.3,9.7-9.8c0-5.4-4.3-9.8-9.7-9.8H138.6c-5.3,0-9.7,4.3-9.7,9.8
	C128.8,211.1,133.2,215.5,138.6,215.5z M138.6,152.4H324c5.4,0,9.7-4.3,9.7-9.8c0-5.4-4.3-9.8-9.7-9.8H138.6c-5.3,0-9.7,4.3-9.7,9.8
	C128.8,148.1,133.2,152.4,138.6,152.4z M138.6,88.8H324c5.4,0,9.7-4.4,9.7-9.8c0-5.4-4.3-9.9-9.7-9.9H138.6c-5.3,0-9.7,4.4-9.7,9.9
	C128.8,84.3,133.2,88.8,138.6,88.8z M72.3,424.2h241.5c10.8,0,19.5-8.8,19.6-19.6V283.7c-0.1-10.9-8.7-19.6-19.6-19.7H72.3V59.6
	c0-22.1,17.9-40,40-40h238.1c22.1,0,40,17.9,40,40v380.9c0,22.1-17.9,40-40,40H112.3c-22.1,0-40-17.9-40-40V424.2z"/>
<path fill="#82C832" d="M9.8,280h320v130H9.8V280z"/>
<path fill="#82C832" d="M55.6,380c-0.7,0-1.2-0.2-1.7-0.7c-0.4-0.4-0.7-1-0.7-1.6c0-0.4,0.1-0.9,0.3-1.3l24.6-35.6l-23.1-34.1
	c-0.2-0.4-0.3-0.8-0.3-1.3c0-0.7,0.2-1.2,0.7-1.6c0.4-0.4,1-0.7,1.6-0.7h11.2c1.3,0,2.5,0.7,3.4,2.1L88,328.9l16.3-23.8
	c1-1.4,2.1-2.1,3.4-2.1h10.7c0.7,0,1.2,0.2,1.7,0.7c0.4,0.4,0.7,1,0.7,1.6c0,0.5-0.1,1-0.4,1.3l-23,34.1l24.6,35.6
	c0.3,0.6,0.4,1,0.4,1.3c0,0.7-0.3,1.2-0.8,1.6c-0.4,0.4-1,0.7-1.5,0.7h-11.7c-1.4,0-2.5-0.7-3.3-2l-17.6-24.9L70.1,378
	c-1,1.3-2.1,2-3.4,2H55.6z"/>
<path fill="#82C832" d="M142,380c-0.7,0-1.4-0.3-1.9-0.8c-0.5-0.5-0.8-1.1-0.8-1.9v-71.7c0-0.8,0.3-1.4,0.8-1.9
	c0.5-0.5,1.1-0.8,1.9-0.8h10.2c0.8,0,1.4,0.3,1.9,0.8c0.5,0.4,0.8,1.1,0.8,1.9v61.3h34.9c0.8,0,1.5,0.3,2,0.8c0.5,0.5,0.8,1.2,0.8,2
	v7.7c0,0.8-0.3,1.5-0.8,2c-0.5,0.4-1.2,0.7-2,0.7H142z"/>
<path fill="#82C832" d="M236.5,381.1c-6.5,0-12.1-1-16.8-3c-4.7-2-8.2-4.6-10.7-7.8c-2.4-3.2-3.7-6.7-3.8-10.5
	c0-0.7,0.2-1.2,0.7-1.6c0.4-0.4,1-0.7,1.6-0.7h9.8c0.9,0,1.5,0.2,2,0.5c0.5,0.3,1,0.8,1.4,1.5c0.7,2.5,2.4,4.6,5.1,6.3
	c2.6,1.7,6.2,2.5,10.8,2.5c5.2,0,9.1-0.8,11.8-2.5c2.6-1.8,4-4.2,4-7.3c0-2.1-0.7-3.7-2.1-5.1c-1.3-1.3-3.3-2.5-6.1-3.4
	c-2.6-1-6.6-2.1-11.9-3.5c-8.7-2.1-15-4.8-19-8.1c-4-3.4-5.9-8.3-5.9-14.6c0-4.3,1.1-8,3.4-11.3c2.3-3.3,5.7-5.9,10-7.8
	c4.4-1.9,9.5-2.9,15.3-2.9c6,0,11.2,1.1,15.6,3.2c4.4,2.1,7.7,4.8,10,8c2.3,3.2,3.6,6.3,3.7,9.5c0,0.7-0.2,1.2-0.7,1.6
	c-0.4,0.4-1,0.7-1.7,0.7h-10.2c-1.5,0-2.6-0.7-3.2-2.1c-0.4-2.3-1.9-4.3-4.4-5.8c-2.5-1.6-5.6-2.4-9.2-2.4c-4.1,0-7.3,0.8-9.7,2.3
	c-2.3,1.5-3.5,3.8-3.5,6.7c0,2.1,0.6,3.7,1.8,5.1c1.2,1.3,3,2.5,5.5,3.5c2.6,1,6.2,2.2,11,3.4c6.5,1.5,11.6,3.1,15.4,5
	c3.9,1.8,6.7,4.1,8.6,6.9c1.8,2.8,2.8,6.3,2.8,10.7c0,4.7-1.3,8.8-4,12.3c-2.6,3.4-6.2,6.1-11,7.9
	C248.1,380.2,242.6,381.1,236.5,381.1z"/>
</svg>
