<?xml version="1.0" encoding="utf-8"?>
<!-- Generator: Adobe Illustrator 25.2.3, SVG Export Plug-In . SVG Version: 6.00 Build 0)  -->
<svg version="1.1" id="Слой_1" xmlns="http://www.w3.org/2000/svg" xmlns:xlink="http://www.w3.org/1999/xlink" x="0px" y="0px"
	 width="500px" height="500px" viewBox="0 0 500 500" enable-background="new 0 0 500 500" xml:space="preserve">
<path fill="#82C831" d="M340.9,318.2H181.8v-45.5h159.1V318.2z M409.1,227.3H181.8v-45.5h227.3V227.3z M409.1,136.4H181.8V90.9
	h227.3V136.4z M45.5,90.9v363.6h363.6V500H45.5c-12.1,0-23.6-4.8-32.1-13.3C4.8,478.2,0,466.6,0,454.5V90.9H45.5z M454.5,0
	c12.1,0,23.6,4.8,32.1,13.3c8.5,8.5,13.3,20.1,13.3,32.1v318.2c0,25.2-20.2,45.5-45.5,45.5H136.4c-12.1,0-23.6-4.8-32.1-13.3
	c-8.5-8.5-13.3-20.1-13.3-32.1V45.5C90.9,20.2,111.1,0,136.4,0H454.5z M136.4,45.5v318.2h318.2V45.5H136.4z"/>
</svg>
