<?xml version="1.0" encoding="utf-8"?>
<!-- Generator: Adobe Illustrator 25.2.3, SVG Export Plug-In . SVG Version: 6.00 Build 0)  -->
<svg version="1.1" id="Слой_1" xmlns="http://www.w3.org/2000/svg" xmlns:xlink="http://www.w3.org/1999/xlink" x="0px" y="0px"
	 width="454.4px" height="500px" viewBox="0 0 454.4 500" enable-background="new 0 0 454.4 500" xml:space="preserve">
<path fill="#82C831" d="M216.4,7.4L8.5,216.1c-5.2,5.2-8.1,12.3-8.1,19.7v179.5c0,15.4,12.5,28,28,28h398.5c15.4,0,28-12.5,28-28
	V235.2c0-7-2.6-13.7-7.3-18.9L256.8,8.2C246-3.5,227.6-3.9,216.4,7.4z"/>
<path fill="#FFA046" d="M175.2,275.5h114.2c10.3,0,18.6,8.3,18.6,18.6v186.4c0,10.3-8.3,18.6-18.6,18.6H175.2
	c-10.3,0-18.6-8.3-18.6-18.6V294.2C156.6,283.9,164.9,275.5,175.2,275.5z"/>
<path fill-rule="evenodd" clip-rule="evenodd" fill="#507800" d="M308,443.3V294.2c0-10.3-8.3-18.6-18.6-18.6H175.2
	c-10.3,0-18.6,8.3-18.6,18.6v149.1H308z"/>
<path fill="#FFA046" d="M80.5,42.6h29c10.3,0,18.6,8.3,18.6,18.6v121.1c0,10.3-8.3,18.6-18.6,18.6h-29c-10.3,0-18.6-8.3-18.6-18.6
	V61.2C61.9,50.9,70.3,42.6,80.5,42.6z"/>
<path fill-rule="evenodd" clip-rule="evenodd" fill="#507800" d="M61.9,162v20.4c0,10.3,8.3,18.6,18.6,18.6h29
	c10.3,0,18.6-8.3,18.6-18.6V95.4L61.9,162z"/>
<path fill="#FFFFFF" d="M213.1,126.4h38.5c10.3,0,18.6,8.3,18.6,18.6v28c0,10.3-8.3,18.6-18.6,18.6h-38.5
	c-10.3,0-18.6-8.3-18.6-18.6v-28C194.4,134.8,202.8,126.4,213.1,126.4z"/>
</svg>
