<?xml version="1.0" encoding="utf-8"?>
<!-- Generator: Adobe Illustrator 24.0.0, SVG Export Plug-In . SVG Version: 6.00 Build 0)  -->
<svg version="1.1" id="Слой_1" xmlns="http://www.w3.org/2000/svg" xmlns:xlink="http://www.w3.org/1999/xlink" x="0px" y="0px"
	 width="454px" height="500px" viewBox="0 0 454 500" enable-background="new 0 0 454 500" xml:space="preserve">
<g>
	<path fill="#82C831" d="M215.8,8.2L8.1,216.9C2.9,222.2,0,229.3,0,236.7v179.5c0,15.4,12.5,28,27.9,28h398.1
		c15.4,0,27.9-12.5,27.9-28V236c0-7-2.6-13.7-7.3-18.9L256.2,9.1C245.5-2.7,227.1-3.1,215.8,8.2z"/>
	<path fill="#FFA046" d="M174.7,276.4h114.1c10.3,0,18.6,8.3,18.6,18.6v186.4c0,10.3-8.3,18.6-18.6,18.6H174.7
		c-10.3,0-18.6-8.3-18.6-18.6V295C156.1,284.7,164.4,276.4,174.7,276.4z"/>
	<path fill-rule="evenodd" clip-rule="evenodd" fill="#507800" d="M307.4,444.1V295c0-10.3-8.3-18.6-18.6-18.6H174.7
		c-10.3,0-18.6,8.3-18.6,18.6v149.1H307.4z"/>
	<path fill="#FFA046" d="M80.1,43.4h29c10.3,0,18.6,8.3,18.6,18.6v121.1c0,10.3-8.3,18.6-18.6,18.6h-29c-10.3,0-18.6-8.3-18.6-18.6
		V62C61.5,51.7,69.8,43.4,80.1,43.4z"/>
	<path fill-rule="evenodd" clip-rule="evenodd" fill="#507800" d="M61.5,162.8v20.4c0,10.3,8.3,18.6,18.6,18.6h29
		c10.3,0,18.6-8.3,18.6-18.6V96.2L61.5,162.8z"/>
	<path fill="#FFFFFF" d="M212.5,127.3h38.4c10.3,0,18.6,8.3,18.6,18.6v28c0,10.3-8.3,18.6-18.6,18.6h-38.4
		c-10.3,0-18.6-8.3-18.6-18.6v-28C193.9,135.6,202.2,127.3,212.5,127.3z"/>
</g>
</svg>
