<?xml version="1.0" encoding="utf-8"?>
<!-- Generator: Adobe Illustrator 25.2.3, SVG Export Plug-In . SVG Version: 6.00 Build 0)  -->
<svg version="1.1" id="Слой_1" xmlns="http://www.w3.org/2000/svg" xmlns:xlink="http://www.w3.org/1999/xlink" x="0px" y="0px"
	 width="467.9px" height="500px" viewBox="0 0 467.9 500" enable-background="new 0 0 467.9 500" xml:space="preserve">
<path fill="#78A0BE" d="M5.6,415.3C-0.8,370.4,0,291.7,0,218.8V61.5C11.2-0.2,61.6-0.2,89.6-0.2l100.8,0l106.4,0
	c28,0,61.6-5.6,72.8,39.3c11.2,106.7,11.2,134.8,11.2,207.8v0c0,84.2,6.7,179.7-16.8,219c-13.4,22.5-50.4,33.7-128.8,33.7
	c-50.4,0-134.4,0.9-173.5-5.6C22.4,487.3,12,460.2,5.6,415.3z"/>
<path fill-rule="evenodd" clip-rule="evenodd" fill="#507800" d="M443.2,106.3c7.2-1.7,15.8-3.2,21.1,3.1v-0.2
	c6.2,7.4,3.1,19.4-0.4,28.6l-60.7,158.7c-3.1,8.1-7.3,17.1-14.7,18.7c-7.4,1.6-14.5-5-20.2-11l-18.9-21.6c-0.4,0.4-0.8,0.9-1.3,1.4
	c-4.6,4.8-14.8,15.3-18.4,18.3c-3.1,2.7-6.3,6.2-9.6,9.6c-3.4,3.7-6.9,7.4-10.2,10.1c0-0.2,0-0.4,0-0.7
	c-12.8,12.4-26,24.8-39.3,36.8c-7.3,6.6-15.3,13.5-25.3,14.7c-17.2,2.1-33.2-7.5-44.7-21.3c-2.5-3.6-5.7-6.5-9.5-8.7
	c-3.8-2.2-8-3.5-12.4-3.9c-8.7-1.3-25.6,14.5-42.3,30.1c-4.3,4-8.5,8-12.6,11.7c-6.9,6.2-14.4,12.6-23.8,13.6
	c-16.3,1.7-31.2-13.6-41.7-26.1c-10.5-12.5-21.9-28-18.1-43.1c2.6-7.6,7.3-14.3,13.4-19.5c18.5-18.5,34.7-31.2,50.8-44
	c16.1-12.7,32.2-25.4,50.6-43.8c5.2-6,11.8-10.9,19.1-14.1c13.5-4.9,29.5,1.5,41.1,11.5c3.2,2.8,5.8,5.2,8,7.2
	c7.5,6.9,9.9,9.2,15.9,8.4c5-0.6,18.7-11.3,33.7-24.4c-1.7-1.7-4.5-4.8-7.6-8.1c-4.6-5-9.8-10.6-12.6-13.1
	c-31.1-28.7,29.4-40.4,59.2-46.2c4.8-0.9,8.8-1.7,11.5-2.4L443.2,106.3z"/>
<path fill-rule="evenodd" clip-rule="evenodd" fill="#82C831" d="M381.3,314.3c2.4,1,4.8,1.3,7.3,0.8c7.4-1.6,11.6-10.6,14.7-18.7
	l60.7-158.7c3.5-9.1,6.6-21.2,0.4-28.6v0.2c-5.3-6.3-14-4.8-21.1-3.1L377.2,123c3.4,47.7,3.4,78.5,3.4,130.2v0v0
	c0,16.6,0.2,33.5,0.5,50.4C381.2,307.2,381.2,310.7,381.3,314.3z"/>
</svg>
