<?xml version="1.0" encoding="utf-8"?>
<!-- Generator: Adobe Illustrator 25.2.3, SVG Export Plug-In . SVG Version: 6.00 Build 0)  -->
<svg version="1.1" id="Слой_1" xmlns="http://www.w3.org/2000/svg" xmlns:xlink="http://www.w3.org/1999/xlink" x="0px" y="0px"
	 width="728.6px" height="500px" viewBox="0 0 728.6 500" enable-background="new 0 0 728.6 500" xml:space="preserve">
<path fill="#82C832" d="M438.5,329.6c-18.4,2.3-35.5-8-47.8-22.6c-2.7-3.8-6.2-7-10.3-9.2c-4.1-2.3-8.7-3.7-13.4-4
	c-11.6-1.6-37.1,25.3-58.6,44.3c-7.3,6.5-15.4,13.4-25.4,14.5c-17.5,1.9-32.6-13.6-44.6-27.7c-11.9-14.1-23.4-29.6-19.3-45.7
	c2.8-8,7.8-15.2,14.3-20.6c39.5-38.7,68.9-54,108.4-93c5.6-6.4,12.6-11.5,20.4-15c14.4-5.1,31.5,1.7,43.9,12.2
	c15.4,13.1,16.5,17.4,25.6,16.6c9.1-0.8,38.9-27.7,62.5-49.8c-31.7-7.3-68.1-7-96.9-8.1c-89.1-3.4-178.2-4.7-267.3-7
	C58.3,112.7,16.8,119.7,5,194.8c-7.3,47.1-5.1,105.2-3.2,153c1,22.6,2.3,72,15,92.5c22.6,37.3,99.5,43.7,139.1,45.5
	c89.1,4,415.8,57,411.3-72.9c0-44.8,5.1-89.3,4-134.1c-0.3-13.1,0-33.8-1-53.7c-34.9,30-69.3,57.3-104.5,88.6
	c-7.9,7-16.4,14.3-27,15.6L438.5,329.6z M504.7,424.1c0,1.9-0.3,3.8-1,5.6c-0.7,1.8-1.8,3.4-3.1,4.8c-1.4,1.4-3,2.5-4.8,3.2
	c-1.8,0.8-3.7,1.2-5.7,1.2c-15.1,0.2-30,0.3-44.7,0.3c-127.9,0-255.7-8.1-382.5-24.1c-3.3-1-6.2-3.1-8.1-6c-1.9-2.9-2.7-6.3-2.3-9.7
	c0.4-3.4,2.1-6.5,4.6-8.9c2.6-2.3,5.9-3.7,9.4-3.9c140.2,17.8,281.6,25.6,423,23.6c2,0,3.9,0.3,5.7,1c1.8,0.7,3.5,1.7,4.9,3.1
	c1.4,1.3,2.5,2.9,3.3,4.7c0.8,1.8,1.2,3.6,1.2,5.6"/>
<path fill="#FFA046" d="M724.6,4.9c-5.8-6.8-15.1-5.2-22.9-3.4L571.9,34.5c-21.1,5.2-116,16.5-76.8,52.7c4.9,4.6,17.3,18.5,22,23.1
	c-2.4,2-4.7,4.2-6.9,6.4c-4.8,4.6-11,10.4-17.6,16.4c30.6,6.8,56.8,20.6,67.3,49.6c3.8,13.3,4.3,32,4.4,45.8
	c7-5.8,15.6-16.8,22.6-22.9c4.4-3.6,8.6-7.5,12.5-11.6l21.1,22.3c6.3,6.6,13.9,13.7,22,12c8.1-1.7,12.6-11.5,16-20.3l65.9-172.3
	c3.8-9.9,7.1-23,0.4-31"/>
<path fill="#507800" d="M494.7,128.5c-24.1,22.7-55.1,50-63.5,51c-8.4,1-10.4-3.4-26-17c-12.6-10.8-29.9-17.7-44.6-12.5
	c-8,3.6-15,8.8-20.7,15.4c-40.2,40-70.1,55.3-110.2,95.3c-6.7,5.6-11.7,12.9-14.6,21.1c-4.1,16.4,8.2,33.2,19.6,46.8
	c11.4,13.6,27.6,30.2,45.3,28.3c10.2-1.1,18.3-8.1,25.8-14.8c21.8-19.6,47.8-47.1,59.6-45.3c4.7,0.4,9.3,1.9,13.4,4.2
	c4.1,2.4,7.6,5.6,10.3,9.4c12.6,15,29.9,25.5,48.6,23.1c10.8-1.3,19.5-8.8,27.4-16c35.8-32.1,70.7-60.1,106.2-90.7
	c-0.2-14.9-2.3-29.8-6.3-44.2c-11-31.6-38.5-46.5-70.4-53.8"/>
</svg>
