<?xml version="1.0" encoding="utf-8"?>
<!-- Generator: Adobe Illustrator 24.2.1, SVG Export Plug-In . SVG Version: 6.00 Build 0)  -->
<svg version="1.1" id="Layer_1" xmlns="http://www.w3.org/2000/svg" xmlns:xlink="http://www.w3.org/1999/xlink" x="0px" y="0px"
	 width="42.2px" height="40px" viewBox="0 0 42.2 40" style="enable-background:new 0 0 42.2 40;" xml:space="preserve">
<style type="text/css">
	.st0{fill:#FFA046;}
	.st1{fill:#82C832;}
	.st2{fill:#507800;}
</style>
<path class="st0" d="M18,28c-0.7-6.4,3.5-13.3,8.7-17.2c-3-3.4-6.6-6.1-9.9-7.3c-7.7-2.9-15.4,0-15.4,8.7c0,9.5,7.6,18.4,15.6,22.6
	c3.1,1.6,6.7,2.1,10.1,1.4C22.5,36.6,18.6,33.5,18,28"/>
<path class="st1" d="M29.2,9.2c-0.9,0.5-1.7,1-2.5,1.6c4,4.4,7.1,10,7.7,14.8c0.7,6.1-2.7,9.5-7.2,10.6c1.3-0.1,2.7-0.5,3.9-1.1
	c6.6-3.2,11.3-11.2,11.2-18.4C42.1,9,35.3,5.9,29.2,9.2"/>
<path class="st2" d="M34.4,25.6c-0.6-4.8-3.7-10.4-7.7-14.8C21.5,14.7,17.3,21.6,18,28c0.6,5.5,4.5,8.6,9.1,8.2
	C31.7,35.2,35.1,31.7,34.4,25.6z"/>
</svg>
