<svg width="275" height="72" viewBox="0 0 275 72" fill="none" xmlns="http://www.w3.org/2000/svg">
<path d="M32.366 50.4197C31.0719 38.8614 38.6285 26.523 47.9825 19.4508C42.5398 13.4116 36.1983 8.52829 30.2522 6.27443C16.4188 1.03711 2.62859 6.31778 2.57826 21.9792C2.52793 39.0998 16.2391 55.1297 30.6764 62.6136C36.2417 65.5402 42.6436 66.4412 48.795 65.1636C40.3972 65.886 33.4661 60.2947 32.3589 50.4197" fill="#FFA046"/>
<path d="M52.5408 16.4967C50.9492 17.3643 49.4253 18.352 47.9824 19.4513C55.1939 27.4337 60.8164 37.4966 61.8302 46.1436C63.0956 57.0517 56.9267 63.3004 48.8021 65.1641C51.2274 64.9386 53.5924 64.2755 55.7835 63.2064C67.6971 57.5285 76.0806 42.9795 75.9152 30.056C75.7283 16.1355 63.4263 10.6381 52.5624 16.504" fill="#82C832"/>
<path d="M61.8306 46.1454C60.8169 37.4984 55.1943 27.4355 47.9829 19.4531C38.636 26.5253 31.0722 38.8276 32.3664 50.422C33.4952 60.2898 40.4047 65.8739 48.8025 65.166C56.9271 63.3022 63.0961 57.0535 61.8306 46.1454Z" fill="#507800"/>
<path d="M105.644 41.2541C104.586 42.2121 103.363 42.6982 102.008 42.6982C100.389 42.6982 99.0433 42.1613 98.0035 41.0991C96.9617 40.0647 96.4334 38.6524 96.4334 36.8997C96.4334 35.2085 96.9391 33.8545 97.9784 32.7611C99.0401 31.6448 100.255 31.1018 101.692 31.1018C103.201 31.1018 104.38 31.4193 105.311 32.0828C105.844 32.4186 106.413 32.3482 106.862 31.8709C107.034 31.6448 107.122 31.4058 107.122 31.1614C107.122 30.8033 106.987 30.504 106.698 30.2522C105.337 29.2753 103.618 28.8 101.44 28.8C99.3413 28.8 97.5653 29.5826 96.1631 31.1269C94.7648 32.6657 94.0557 34.6087 94.0557 36.8997C94.0557 39.3626 94.7796 41.2873 96.2648 42.7808C97.6965 44.2539 99.5865 45 101.881 45C104.018 45 105.752 44.2858 107.185 42.8113C107.389 42.5973 107.5 42.2933 107.492 41.9779C107.483 41.682 107.366 41.4078 107.185 41.2386C106.774 40.8046 106.062 40.8121 105.644 41.2541Z" fill="#82C832"/>
<path d="M115.447 36.5276L120.894 30.7524C121.116 30.5081 121.235 30.211 121.235 29.8952C121.235 29.3011 120.791 28.8 120.266 28.8C119.902 28.8 119.555 28.9943 119.174 29.4122L113.56 35.5664H112.425V29.9966C112.425 29.3254 111.945 28.8 111.332 28.8C110.664 28.8 110.179 29.3032 110.179 29.9966V43.8028C110.179 44.1637 110.308 44.4815 110.543 44.6995C111.143 45.2554 112.425 44.984 112.425 43.8028V37.9276H113.776L119.65 44.3656C120.074 44.7925 120.449 45 120.794 45C121.361 45 121.824 44.5093 121.824 43.9055C121.824 43.5189 121.682 43.1906 121.418 42.9435L115.447 36.5276Z" fill="#82C832"/>
<path d="M134.737 32.0584V40.6252C133.877 41.6698 132.165 42.6975 130.461 42.6975C127.173 42.6975 125.13 40.5013 125.13 36.966C125.13 35.2884 125.672 33.9249 126.789 32.7977C127.903 31.6725 129.31 31.1018 130.973 31.1018C132.345 31.1018 133.578 31.4146 134.737 32.0584ZM136.415 30.175L136.404 30.1682C134.793 29.2475 133.027 28.8 131.005 28.8C128.627 28.8 126.637 29.5786 125.09 31.1154C123.517 32.6785 122.72 34.6249 122.72 36.8997C122.72 39.301 123.416 41.2765 124.791 42.7727C126.15 44.2506 127.971 45 130.206 45C131.787 45 133.49 44.3216 134.737 43.229V43.6663C134.737 44.0183 134.871 44.3284 135.113 44.541C135.732 45.0833 137.052 44.8179 137.052 43.6663V31.3273C137.052 30.8398 136.826 30.4309 136.415 30.175Z" fill="#82C832"/>
<path d="M152.935 28.8C152.239 28.8 151.735 29.3032 151.735 29.9973V35.5671H142.971V29.9973C142.971 29.3254 142.472 28.8 141.836 28.8C141.14 28.8 140.635 29.3032 140.635 29.9973V43.8034C140.635 44.4746 141.134 45 141.771 45C142.477 45 142.971 44.5079 142.971 43.8034V37.9276H151.735V43.8034C151.735 44.1637 151.869 44.4815 152.113 44.7002C152.737 45.2554 154.071 44.984 154.071 43.8034V29.9973C154.071 29.3254 153.572 28.8 152.935 28.8Z" fill="#82C832"/>
<path d="M168.043 31.1585V42.4171H160.457C160.816 41.7539 161.169 40.8218 161.511 39.6319C161.942 38.0574 162.243 36.2189 162.41 34.1613L162.586 31.1585H168.043ZM171.694 42.4171H170.42V30.031C170.42 29.3643 169.876 28.8016 169.232 28.8016H161.517C160.832 28.8016 160.296 29.3414 160.296 30.0102L160.1 33.4392C159.841 37.8086 158.81 41.0512 157.869 42.4171H157.053C156.408 42.4171 155.863 42.9799 155.863 43.6465V47.517C155.863 48.9418 158.143 48.9418 158.143 47.517V44.7741H170.604V47.517C170.604 48.2294 171.178 48.6016 171.743 48.6016C172.309 48.6016 172.883 48.2294 172.883 47.517V43.6465C172.883 42.9799 172.338 42.4171 171.694 42.4171Z" fill="#82C832"/>
<path d="M186.901 28.8C186.393 28.8 185.89 29.1158 185.446 29.7106L176.966 40.9856V29.9973C176.966 29.3254 176.477 28.8 175.852 28.8C175.169 28.8 174.674 29.3032 174.674 29.9973V43.6667C174.674 44.5024 175.138 45 175.915 45C176.291 45 176.845 44.8466 177.338 44.1241L185.818 32.8491V43.8034C185.818 44.4746 186.307 45 186.932 45C187.626 45 188.11 44.5079 188.11 43.8034V30.0653C188.11 29.2615 187.669 28.8 186.901 28.8Z" fill="#82C832"/>
<path d="M204.07 28.8C203.421 28.8 202.95 29.3032 202.95 29.9973V35.5671H194.771V29.9973C194.771 29.3254 194.305 28.8 193.711 28.8C193.061 28.8 192.59 29.3032 192.59 29.9973V43.8034C192.59 44.4746 193.056 45 193.651 45C194.31 45 194.771 44.5079 194.771 43.8034V37.9276H202.95V43.8034C202.95 44.1637 203.075 44.4815 203.303 44.7002C203.886 45.2554 205.13 44.984 205.131 43.8034V29.9973C205.131 29.3254 204.665 28.8 204.07 28.8Z" fill="#82C832"/>
<path d="M220.731 32.0584V40.6252C219.87 41.6698 218.158 42.6975 216.454 42.6975C213.166 42.6975 211.123 40.5013 211.123 36.966C211.123 35.2884 211.666 33.9249 212.782 32.7977C213.896 31.6725 215.304 31.1018 216.966 31.1018C218.337 31.1018 219.571 31.4146 220.731 32.0584ZM222.407 30.175L222.397 30.1682C220.786 29.2475 219.02 28.8 216.997 28.8C214.62 28.8 212.63 29.5786 211.083 31.1154C209.511 32.6785 208.713 34.6243 208.713 36.8997C208.713 39.3003 209.41 41.2758 210.785 42.7727C212.142 44.2506 213.964 45 216.199 45C217.781 45 219.483 44.3216 220.731 43.229V43.6663C220.731 44.0183 220.864 44.3284 221.106 44.541C221.724 45.0833 223.045 44.8179 223.045 43.6663V31.3273C223.045 30.8405 222.818 30.4309 222.407 30.175Z" fill="#82C832"/>
<path d="M235.891 40.1647C235.891 41.8075 234.51 42.6396 231.788 42.6396C231.011 42.6396 230.142 42.6153 229.144 42.5876L228.917 42.5806V37.8591H232.009C235.891 37.8591 235.891 39.5949 235.891 40.1647ZM232.357 35.7028H228.917V31.218C229.803 31.1888 230.779 31.1604 231.724 31.1604C235.353 31.1604 235.353 32.8191 235.353 33.3639C235.353 34.8068 234.205 35.7028 232.357 35.7028ZM235.733 36.5898C236.966 35.945 237.736 34.6527 237.736 33.0919C237.736 30.204 235.708 28.8 231.535 28.8C231.112 28.8 229.843 28.8347 227.773 28.902C227.121 28.902 226.629 29.4316 226.629 30.1332V43.6668C226.629 44.3691 227.121 44.898 227.764 44.898C230.031 44.9681 231.25 45 231.599 45C236.028 45 238.274 43.4301 238.274 40.3341C238.274 38.4685 237.42 37.213 235.733 36.5898Z" fill="#82C832"/>
<path d="M254.083 28.8C253.575 28.8 253.072 29.1158 252.628 29.7106L244.149 40.9856V29.9973C244.149 29.3254 243.659 28.8 243.034 28.8C242.352 28.8 241.856 29.3032 241.856 29.9973V43.6667C241.856 44.5024 242.32 45 243.098 45C243.474 45 244.027 44.8466 244.52 44.1241L253 32.8491V43.8034C253 44.4746 253.49 45 254.115 45C254.808 45 255.293 44.5079 255.293 43.8034V30.0653C255.293 29.2615 254.852 28.8 254.083 28.8Z" fill="#82C832"/>
<path d="M267.246 31.1704V36.7561H263.672C262.974 36.7561 262.334 36.5024 261.714 35.9803C261.104 35.4674 260.819 34.8477 260.819 34.0316C260.819 32.1866 262.159 31.1704 264.592 31.1704H267.246ZM268.436 28.8H264.887C260.727 28.8 258.342 30.6944 258.342 33.9981C258.342 36.4257 259.921 38.065 261.632 38.5864L258.212 43.077C258.063 43.2819 257.98 43.5635 257.98 43.866C257.98 44.5128 258.463 45 259.104 45C259.537 45 259.926 44.754 260.29 44.2493L264.067 39.1272H267.246V43.7984C267.246 44.4724 267.754 45 268.404 45C269.122 45 269.625 44.5058 269.625 43.7984V30.0365C269.625 29.366 269.08 28.8 268.436 28.8Z" fill="#82C832"/>
<path d="M96.7431 55.9554L98.8034 58.457H97.2102L95.3191 56.0515L97.0403 53.6863H98.5804L96.7431 55.9554ZM94.0557 53.6863H95.2773V58.457H94.0557V53.6863Z" fill="#78A0BE"/>
<path d="M102.932 54.9034H101.668L101.636 55.4127C101.402 58.0097 100.765 58.5508 99.4802 58.5508L99.374 57.3632C99.7881 57.4056 100.351 57.0135 100.458 55.1683L100.531 53.684H104.154V58.4547H102.932V54.9034Z" fill="#78A0BE"/>
<path d="M105.541 58.457V53.6863H106.763V56.7078L108.993 53.6863H110.214V58.457H108.993V55.4355L106.763 58.457H105.541Z" fill="#78A0BE"/>
<path d="M114.915 56.6337H112.823V58.457H111.602V53.6863H112.823V55.4885H114.915V53.6863H116.137V58.457H114.915V56.6337Z" fill="#78A0BE"/>
<path d="M117.525 58.457V53.6863H118.747V56.7078L120.977 53.6863H122.199V58.457H120.977V55.4355L118.747 58.457H117.525Z" fill="#78A0BE"/>
<path d="M126.274 55.9554L128.335 58.457H126.741L124.85 56.0515L126.572 53.6863H128.112L126.274 55.9554ZM123.587 53.6863H124.809V58.457H123.587V53.6863Z" fill="#78A0BE"/>
<path d="M131.568 57.0565V56.569C131.355 56.4094 131.079 56.3352 130.728 56.3352C130.325 56.3352 129.964 56.5259 129.964 56.9293C129.964 57.2896 130.261 57.4909 130.643 57.4909C131.153 57.4909 131.418 57.2677 131.568 57.0565ZM129.114 54.0243C129.529 53.7806 130.175 53.568 130.803 53.568C132.215 53.568 132.715 54.2893 132.715 55.551V58.4553H131.653V57.9042C131.397 58.2645 130.888 58.5195 130.24 58.5195C129.369 58.5195 128.742 57.9791 128.742 57.0565C128.742 56.0067 129.517 55.5086 130.484 55.5086C130.909 55.5086 131.333 55.6464 131.568 55.8159C131.599 55.0211 131.387 54.5866 130.675 54.5866C130.122 54.5866 129.773 54.7555 129.422 54.9152L129.114 54.0243Z" fill="#78A0BE"/>
<path d="M137.437 56.434V57.4944C137.618 57.5043 137.948 57.5361 138.245 57.5361C138.786 57.5361 139.105 57.3136 139.105 56.9851C139.105 56.6248 138.776 56.434 138.202 56.434H137.437ZM137.437 54.6424V55.6915H138.234C138.638 55.6915 138.967 55.5114 138.967 55.1405C138.967 54.7908 138.659 54.6212 138.202 54.6212C137.915 54.6212 137.565 54.6312 137.437 54.6424ZM136.216 53.688C136.63 53.6774 137.352 53.635 138.096 53.635C139.487 53.635 140.263 54.0172 140.263 54.8861C140.263 55.4584 139.849 55.8717 139.37 55.9465V55.9671C140.04 56.126 140.39 56.5188 140.39 57.0698C140.39 58.0137 139.658 58.5117 138.117 58.5117C137.522 58.5117 136.651 58.4587 136.216 58.4587V53.688Z" fill="#78A0BE"/>
<path d="M144.87 56.6337H142.778V58.457H141.557V53.6863H142.778V55.4885H144.87V53.6863H146.092V58.457H144.87V56.6337Z" fill="#78A0BE"/>
<path d="M147.48 58.457V53.6863H148.702V56.7078L150.932 53.6863H152.154V58.457H150.932V55.4355L148.702 58.457H147.48Z" fill="#78A0BE"/>
<path d="M153.542 53.6863H154.647L156.271 55.6799L157.812 53.6863H158.884V58.457H157.663V55.5421L156.251 57.3225H156.218L154.764 55.5421V58.457H153.542V53.6863Z" fill="#78A0BE"/>
<path d="M162.794 57.0565V56.569C162.582 56.4094 162.306 56.3352 161.955 56.3352C161.551 56.3352 161.19 56.5259 161.19 56.9293C161.19 57.2896 161.488 57.4909 161.87 57.4909C162.379 57.4909 162.645 57.2677 162.794 57.0565ZM160.34 54.0243C160.755 53.7806 161.402 53.568 162.029 53.568C163.442 53.568 163.941 54.2893 163.941 55.551V58.4553H162.879V57.9042C162.624 58.2645 162.115 58.5195 161.466 58.5195C160.596 58.5195 159.969 57.9791 159.969 57.0565C159.969 56.0067 160.744 55.5086 161.711 55.5086C162.135 55.5086 162.56 55.6464 162.794 55.8159C162.826 55.0211 162.614 54.5866 161.902 54.5866C161.349 54.5866 160.999 54.7555 160.649 54.9152L160.34 54.0243Z" fill="#78A0BE"/>
<path d="M164.754 53.6863H169.108V54.9057H167.547V58.457H166.325V54.9057H164.754V53.6863Z" fill="#78A0BE"/>
<path d="M170.983 55.6269H173.33C173.342 55.0434 172.937 54.5883 172.237 54.5883C171.504 54.5883 171.111 55.0016 170.983 55.6269ZM174.159 57.9808C173.681 58.3835 173.001 58.5742 172.332 58.5742C170.792 58.5742 169.762 57.5774 169.762 56.072C169.762 54.6831 170.718 53.5704 172.29 53.5704C173.521 53.5704 174.552 54.4506 174.552 55.7858C174.552 56.0826 174.531 56.2627 174.478 56.4429H171.026C171.132 57.1641 171.706 57.5562 172.46 57.5562C173.044 57.5562 173.533 57.3443 173.809 57.1217L174.159 57.9808Z" fill="#78A0BE"/>
<path d="M178.631 54.9034H177.367L177.335 55.4127C177.101 58.0097 176.464 58.5508 175.179 58.5508L175.073 57.3632C175.487 57.4056 176.05 57.0135 176.157 55.1683L176.23 53.684H179.853V58.4547H178.631V54.9034Z" fill="#78A0BE"/>
<path d="M182.461 55.9654V57.3967H183.002C183.661 57.3967 183.927 57.1211 183.927 56.6866C183.927 56.2522 183.671 55.9654 183.013 55.9654H182.461ZM181.239 53.6863H182.461V54.9904H183.119C184.744 54.9904 185.222 55.7958 185.222 56.6436C185.222 57.5556 184.649 58.457 183.024 58.457H181.239V53.6863Z" fill="#78A0BE"/>
<path d="M189.499 56.6337H187.407V58.457H186.186V53.6863H187.407V55.4885H189.499V53.6863H190.721V58.457H189.499V56.6337Z" fill="#78A0BE"/>
<path d="M194.427 57.4397C195.18 57.4397 195.733 56.8992 195.733 56.072C195.733 55.2666 195.17 54.7149 194.427 54.7149C193.704 54.7149 193.131 55.2454 193.131 56.072C193.131 56.8674 193.683 57.4397 194.427 57.4397ZM194.427 53.5697C196.009 53.5697 197.028 54.6407 197.028 56.072C197.028 57.5032 196.009 58.5742 194.427 58.5742C192.843 58.5742 191.824 57.5032 191.824 56.072C191.824 54.6407 192.843 53.5697 194.427 53.5697Z" fill="#78A0BE"/>
<path d="M199.941 51.3013C199.941 51.6934 200.09 52.0749 200.493 52.0749C200.855 52.0749 201.003 51.6934 201.003 51.3013H202.118C202.118 52.2126 201.566 52.9438 200.493 52.9438C199.304 52.9438 198.826 52.2239 198.826 51.3013H199.941ZM198.114 58.457V53.6863H199.336V56.7078L201.566 53.6863H202.788V58.457H201.566V55.4355L199.336 58.457H198.114Z" fill="#78A0BE"/>
<path d="M206.396 53.6863H207.5L209.125 55.6799L210.665 53.6863H211.738V58.457H210.517V55.5421L209.104 57.3225H209.072L207.617 55.5421V58.457H206.396V53.6863Z" fill="#78A0BE"/>
<path d="M214.066 55.6269H216.413C216.425 55.0434 216.02 54.5883 215.32 54.5883C214.587 54.5883 214.194 55.0016 214.066 55.6269ZM217.242 57.9808C216.764 58.3835 216.084 58.5742 215.415 58.5742C213.875 58.5742 212.845 57.5774 212.845 56.072C212.845 54.6831 213.801 53.5704 215.373 53.5704C216.604 53.5704 217.635 54.4506 217.635 55.7858C217.635 56.0826 217.614 56.2627 217.561 56.4429H214.109C214.215 57.1641 214.789 57.5562 215.543 57.5562C216.127 57.5562 216.616 57.3443 216.892 57.1217L217.242 57.9808Z" fill="#78A0BE"/>
<path d="M219.977 57.3224H221.75V54.8314H220.582L220.55 55.3195C220.455 56.3262 220.189 57.0263 219.977 57.3224ZM218.097 57.3224H218.702C219.042 56.8773 219.307 55.9123 219.371 54.8314L219.446 53.6862H222.972V57.3224H223.768V59.5703H222.621V58.4569H219.233V59.5703H218.097V57.3224Z" fill="#78A0BE"/>
<path d="M224.709 58.457V53.6863H225.931V56.7078L228.161 53.6863H229.382V58.457H228.161V55.4355L225.931 58.457H224.709Z" fill="#78A0BE"/>
<path d="M230.771 53.6862H231.992V57.3224H233.957V53.6862H235.179V57.3224H235.975V59.5703H234.827V58.4569H230.771V53.6862Z" fill="#78A0BE"/>
<path d="M236.915 58.457V53.6863H238.137V56.7078L240.367 53.6863H241.588V58.457H240.367V55.4355L238.137 58.457H236.915Z" fill="#78A0BE"/>
<path d="M246.289 56.6337H244.197V58.457H242.976V53.6863H244.197V55.4885H246.289V53.6863H247.511V58.457H246.289V56.6337Z" fill="#78A0BE"/>
<path d="M253.499 53.6863H254.72V58.457H253.499V53.6863ZM250.121 55.966V57.3973H250.599C251.258 57.3973 251.522 57.1218 251.522 56.6873C251.522 56.2522 251.268 55.966 250.609 55.966H250.121ZM248.899 53.6863H250.121V54.9911H250.716C252.341 54.9911 252.818 55.7965 252.818 56.6443C252.818 57.5563 252.245 58.457 250.62 58.457H248.899V53.6863Z" fill="#78A0BE"/>
</svg>
