<?xml version="1.0" encoding="utf-8"?>
<!-- Generator: Adobe Illustrator 24.2.1, SVG Export Plug-In . SVG Version: 6.00 Build 0)  -->
<svg version="1.1" id="Layer_1" xmlns="http://www.w3.org/2000/svg" xmlns:xlink="http://www.w3.org/1999/xlink" x="0px" y="0px"
	 width="153px" height="40px" viewBox="0 0 153 40" style="enable-background:new 0 0 153 40;" xml:space="preserve">
<style type="text/css">
	.st0{fill:#FFA046;}
	.st1{fill:#82C832;}
	.st2{fill:#507800;}
</style>
<path class="st0" d="M18,28c-0.7-6.4,3.5-13.3,8.7-17.2c-3-3.4-6.6-6.1-9.9-7.3c-7.7-2.9-15.4,0-15.4,8.7c0,9.5,7.6,18.4,15.6,22.6
	c3.1,1.6,6.7,2.1,10.1,1.4C22.5,36.6,18.6,33.5,18,28"/>
<path class="st1" d="M29.2,9.2c-0.9,0.5-1.7,1-2.5,1.6c4,4.4,7.1,10,7.7,14.8c0.7,6.1-2.7,9.5-7.2,10.6c1.3-0.1,2.7-0.5,3.9-1.1
	c6.6-3.2,11.3-11.2,11.2-18.4C42.1,9,35.3,5.9,29.2,9.2"/>
<path class="st2" d="M34.4,25.6c-0.6-4.8-3.7-10.4-7.7-14.8C21.5,14.7,17.3,21.6,18,28c0.6,5.5,4.5,8.6,9.1,8.2
	C31.7,35.2,35.1,31.7,34.4,25.6z"/>
<path class="st1" d="M58.8,22.9c-0.6,0.5-1.3,0.8-2,0.8c-0.9,0-1.6-0.3-2.2-0.9c-0.6-0.6-0.9-1.4-0.9-2.3c0-0.9,0.3-1.7,0.9-2.3
	c0.6-0.6,1.3-0.9,2.1-0.9c0.8,0,1.5,0.2,2,0.5c0.3,0.2,0.6,0.1,0.9-0.1c0.1-0.1,0.1-0.3,0.1-0.4c0-0.2-0.1-0.4-0.2-0.5
	c-0.8-0.5-1.7-0.8-2.9-0.8c-1.2,0-2.2,0.4-2.9,1.3c-0.8,0.9-1.2,1.9-1.2,3.2c0,1.4,0.4,2.4,1.2,3.3c0.8,0.8,1.8,1.2,3.1,1.2
	c1.2,0,2.2-0.4,3-1.2c0.1-0.1,0.2-0.3,0.2-0.5c0-0.2-0.1-0.3-0.2-0.4C59.4,22.7,59,22.7,58.8,22.9z"/>
<path class="st1" d="M64.2,20.3l3-3.2c0.1-0.1,0.2-0.3,0.2-0.5c0-0.3-0.2-0.6-0.5-0.6c-0.2,0-0.4,0.1-0.6,0.3l-3.1,3.4h-0.6v-3.1
	c0-0.4-0.3-0.7-0.6-0.7c-0.4,0-0.6,0.3-0.6,0.7v7.7c0,0.2,0.1,0.4,0.2,0.5c0.3,0.3,1,0.2,1-0.5v-3.3h0.8l3.3,3.6
	c0.2,0.2,0.4,0.4,0.6,0.4c0.3,0,0.6-0.3,0.6-0.6c0-0.2-0.1-0.4-0.2-0.5L64.2,20.3z"/>
<path class="st1" d="M75,17.8v4.8c-0.5,0.6-1.4,1.2-2.4,1.2c-1.8,0-3-1.2-3-3.2c0-0.9,0.3-1.7,0.9-2.3c0.6-0.6,1.4-0.9,2.3-0.9
	C73.6,17.3,74.3,17.5,75,17.8z M75.9,16.8L75.9,16.8C75,16.2,74,16,72.9,16c-1.3,0-2.4,0.4-3.3,1.3c-0.9,0.9-1.3,1.9-1.3,3.2
	c0,1.3,0.4,2.4,1.2,3.3c0.8,0.8,1.8,1.2,3,1.2c0.9,0,1.8-0.4,2.5-1v0.2c0,0.2,0.1,0.4,0.2,0.5c0.3,0.3,1.1,0.2,1.1-0.5v-6.9
	C76.3,17.1,76.1,16.9,75.9,16.8z"/>
<path class="st1" d="M85.1,16c-0.4,0-0.7,0.3-0.7,0.7v3.1h-4.9v-3.1c0-0.4-0.3-0.7-0.6-0.7c-0.4,0-0.7,0.3-0.7,0.7v7.7
	c0,0.4,0.3,0.7,0.6,0.7c0.4,0,0.7-0.3,0.7-0.7v-3.3h4.9v3.3c0,0.2,0.1,0.4,0.2,0.5c0.3,0.3,1.1,0.2,1.1-0.5v-7.7
	C85.7,16.3,85.4,16,85.1,16z"/>
<path class="st1" d="M93.5,17.3v6.3h-4.2c0.2-0.4,0.4-0.9,0.6-1.5c0.2-0.9,0.4-1.9,0.5-3l0.1-1.7H93.5z M95.5,23.6h-0.7v-6.9
	c0-0.4-0.3-0.7-0.7-0.7h-4.3c-0.4,0-0.7,0.3-0.7,0.7l-0.1,1.9c-0.1,2.4-0.7,4.2-1.2,5h-0.5c-0.4,0-0.7,0.3-0.7,0.7v2.2
	c0,0.8,1.3,0.8,1.3,0v-1.5h6.9v1.5c0,0.4,0.3,0.6,0.6,0.6c0.3,0,0.6-0.2,0.6-0.6v-2.2C96.2,23.9,95.9,23.6,95.5,23.6z"/>
<path class="st1" d="M104,16c-0.3,0-0.6,0.2-0.8,0.5l-4.7,6.3v-6.1c0-0.4-0.3-0.7-0.6-0.7c-0.4,0-0.7,0.3-0.7,0.7v7.6
	c0,0.5,0.3,0.7,0.7,0.7c0.2,0,0.5-0.1,0.8-0.5l4.7-6.3v6.1c0,0.4,0.3,0.7,0.6,0.7c0.4,0,0.7-0.3,0.7-0.7v-7.6
	C104.7,16.3,104.4,16,104,16z"/>
<path class="st1" d="M113.5,16c-0.4,0-0.6,0.3-0.6,0.7v3.1h-4.6v-3.1c0-0.4-0.3-0.7-0.6-0.7c-0.4,0-0.6,0.3-0.6,0.7v7.7
	c0,0.4,0.3,0.7,0.6,0.7c0.4,0,0.6-0.3,0.6-0.7v-3.3h4.6v3.3c0,0.2,0.1,0.4,0.2,0.5c0.3,0.3,1,0.2,1-0.5v-7.7
	C114.1,16.3,113.9,16,113.5,16z"/>
<path class="st1" d="M122.8,17.8v4.8c-0.5,0.6-1.4,1.2-2.4,1.2c-1.8,0-3-1.2-3-3.2c0-0.9,0.3-1.7,0.9-2.3c0.6-0.6,1.4-0.9,2.3-0.9
	C121.5,17.3,122.2,17.5,122.8,17.8z M123.7,16.8L123.7,16.8c-0.9-0.5-1.9-0.8-3-0.8c-1.3,0-2.4,0.4-3.3,1.3
	c-0.9,0.9-1.3,1.9-1.3,3.2c0,1.3,0.4,2.4,1.2,3.3c0.8,0.8,1.8,1.2,3,1.2c0.9,0,1.8-0.4,2.5-1v0.2c0,0.2,0.1,0.4,0.2,0.5
	c0.3,0.3,1.1,0.2,1.1-0.5v-6.9C124.1,17.1,124,16.9,123.7,16.8z"/>
<path class="st1" d="M131.2,22.3c0,0.9-0.8,1.4-2.3,1.4c-0.4,0-0.9,0-1.5,0l-0.1,0V21h1.7C131.2,21,131.2,22,131.2,22.3z
	 M129.3,19.8h-1.9v-2.5c0.5,0,1,0,1.6,0c2,0,2,0.9,2,1.2C130.9,19.3,130.3,19.8,129.3,19.8z M131.2,20.3c0.7-0.4,1.1-1.1,1.1-1.9
	c0-1.6-1.1-2.4-3.5-2.4c-0.2,0-0.9,0-2.1,0.1c-0.4,0-0.6,0.3-0.6,0.7v7.5c0,0.4,0.3,0.7,0.6,0.7c1.3,0,1.9,0.1,2.1,0.1
	c2.5,0,3.7-0.9,3.7-2.6C132.6,21.4,132.1,20.7,131.2,20.3z"/>
<path class="st1" d="M141.4,16c-0.3,0-0.6,0.2-0.8,0.5l-4.7,6.3v-6.1c0-0.4-0.3-0.7-0.6-0.7c-0.4,0-0.7,0.3-0.7,0.7v7.6
	c0,0.5,0.3,0.7,0.7,0.7c0.2,0,0.5-0.1,0.8-0.5l4.7-6.3v6.1c0,0.4,0.3,0.7,0.6,0.7c0.4,0,0.7-0.3,0.7-0.7v-7.6
	C142,16.3,141.8,16,141.4,16z"/>
<path class="st1" d="M148.7,17.3v3.1h-2c-0.4,0-0.7-0.1-1.1-0.4c-0.3-0.3-0.5-0.6-0.5-1.1c0-1,0.7-1.6,2.1-1.6H148.7z M149.3,16h-2
	c-2.3,0-3.6,1.1-3.6,2.9c0,1.3,0.9,2.3,1.8,2.5l-1.9,2.5c-0.1,0.1-0.1,0.3-0.1,0.4c0,0.4,0.3,0.6,0.6,0.6c0.2,0,0.5-0.1,0.7-0.4
	l2.1-2.8h1.8v2.6c0,0.4,0.3,0.7,0.6,0.7c0.4,0,0.7-0.3,0.7-0.7v-7.6C150,16.3,149.7,16,149.3,16z"/>
</svg>
