<?xml version="1.0" encoding="utf-8"?>
<!-- Generator: Adobe Illustrator 25.2.3, SVG Export Plug-In . SVG Version: 6.00 Build 0)  -->
<svg version="1.1" id="Слой_1" xmlns="http://www.w3.org/2000/svg" xmlns:xlink="http://www.w3.org/1999/xlink" x="0px" y="0px"
	 width="511.1px" height="500px" viewBox="0 0 511.1 500" enable-background="new 0 0 511.1 500" xml:space="preserve">
<path fill="#FFA046" d="M166.7,344.4l2.7,69.6c0.9,21.3,2.3,44.3,16.3,60.5c16.9,19.7,46.1,22.9,72.3,24.6
	c30.4,2,65.4,2.3,85.9-19.9c14.9-16.2,17.5-39.9,19-61.6c1.7-24.4,2.9-48.7,3.9-73.2C300,338.9,233.3,344.4,166.7,344.4z"/>
<path fill="#FFA046" d="M363.2,83.5c-1.3-17.9-3-36.3-12.1-52C331.8-1.8,262.1-2.5,226.6,2c-27.4,3.4-54.5,17.5-65.3,41.2
	c-6.7,14.9-6.1,31.6-5.4,47.7l2.6,64.7l208.1-9.5c-0.9-21-2.1-41.8-3.6-62.6"/>
<path fill="#82C832" d="M86.9,159c-21.8,1-45.3,2.6-61.7,15.9c-20,16.1-23,43.7-24.5,68.4c-1.8,28.7-1.8,61.7,21.2,80.6
	c16.7,14,40.8,16.1,63.2,17.4c27.2,1.5,54.4,2.6,81.6,3.2c-2.6-62.9-5.2-125.8-8-188.9l-71.9,3.3"/>
<path fill="#82C832" d="M508.9,210.8c-3.6-25.5-17.8-51.4-41.1-61.2c-14.8-6.2-31.3-5.5-47-4.6l-54.1,2.7
	c2.8,65.5,2.9,131.1,0.4,196.7c20.9-1.1,41.9-2.4,62.8-4.3c17.5-1.4,35.7-3.2,51.1-12c32.6-18.5,32.7-84.2,27.9-117.6"/>
<path fill="#507800" d="M366.7,144.6l-211.1,11c2.7,63.2,5.3,124.8,8,187.9c67.1,1.8,136.1,3.2,203.1,0
	C369.4,277.9,369.6,210.2,366.7,144.6z"/>
</svg>
