<?xml version="1.0" encoding="utf-8"?>
<!-- Generator: Adobe Illustrator 25.2.3, SVG Export Plug-In . SVG Version: 6.00 Build 0)  -->
<svg version="1.1" id="Слой_1" xmlns="http://www.w3.org/2000/svg" xmlns:xlink="http://www.w3.org/1999/xlink" x="0px" y="0px"
	 width="750px" height="500px" viewBox="0 0 750 500" enable-background="new 0 0 750 500" xml:space="preserve">
<path fill="#FFA046" d="M144.7,23.7C325-66.8,377.8,132.1,377.8,132.1C390.1,111,410.6-2,531.5,0c203.4,4.1,55.8,419.8-134.7,500
	C193.9,445-33,112.6,144.7,23.7z"/>
<path fill="#78A0BE" d="M391.1,382.3c-1,0-2,0-3.6-0.5c-7.2-1-13.3-5.7-16.9-12.3l-92.7-186l-82,115.6c-4.1,6.2-11.3,9.8-18.4,9.8
	H22.3c-12.3,0-22.5-10.3-22.5-22.6s10.2-22.6,22.5-22.6h143.9l96.8-137.2c4.6-6.7,12.3-10.3,20-9.2c7.7,0.5,14.9,5.1,18.4,12.3
	l95.8,191.7l62-64.2c4.1-4.1,9.7-6.7,15.9-6.7l252-2.1c12.3,0,22.5,9.8,22.5,22.6c0,12.3-9.7,22.6-22.5,22.6l-242.3,2.1l-77.4,79.6
	C402.9,379.8,397.3,382.3,391.1,382.3z"/>
<path fill="#507800" d="M475.1,250.3c-6.1,0-11.8,2.6-15.9,6.7l-62,63.7l-95.8-191.2c-3.6-7.2-10.8-11.8-18.4-12.3
	c-8.2-0.5-15.4,3.1-20,9.2l-96.8,137.2h-44.6c8.7,15.4,17.9,30.3,28.7,45.2H178c7.2,0,14.3-3.6,18.4-9.8l82-115.6l93.2,186
	c3.1,6.7,9.7,11.3,16.9,12.3c1,0,2.6,0.5,3.6,0.5c6.1,0,11.8-2.6,16.4-6.7l77.4-79.6l97.8-1c7.2-14.9,13.8-30.3,19.5-45.2
	L475.1,250.3z"/>
</svg>
