<?xml version="1.0" encoding="utf-8"?>
<!-- Generator: Adobe Illustrator 25.2.3, SVG Export Plug-In . SVG Version: 6.00 Build 0)  -->
<svg version="1.1" id="Слой_1" xmlns="http://www.w3.org/2000/svg" xmlns:xlink="http://www.w3.org/1999/xlink" x="0px" y="0px"
	 width="428.6px" height="500px" viewBox="0 0 428.6 500" enable-background="new 0 0 428.6 500" xml:space="preserve">
<path fill="#FFA046" d="M281.2,281.5c-9.1-15.7-35-20.3-46.1-5.9c-4.4-27.3-14.1-184.1-47.4-180.2c-9.3,1.1-18.5,18.9-26.2,43.1
	c15.7,11.3,29.6,24.8,41.4,40c-17.4,15.8-37,29-58.3,39.2c-3.6,27.9-4,51.4,0.4,58.6c-7.7-12.6-29.4-10.4-37.4,2s-4.3,29.5,5.3,40.9
	c9.6,11.4,64.5,46.5,86.3,46c21.8-0.4,59.1-17.5,73.5-33.6C284.8,318,290.2,297.2,281.2,281.5"/>
<path fill="#78A0BE" d="M106.5,119.8c-52-5.8-85.6,20.2-106.5,57.4c22.2,30.5,45.1,52.9,95.8,52.9c16.4-0.6,32.4-4.7,47.1-12.1
	c3.2-25.8,8.5-51.3,15.9-76.2C144.1,131.3,126.4,122,106.5,119.8z"/>
<path fill="#507800" d="M158.9,134.9c-7.5,28.5-12.9,57.7-16.1,87.3c20.3-11.3,39-25.8,55.6-43.2
	C187.2,162.3,173.9,147.4,158.9,134.9z"/>
<path fill="#FFA046" d="M113.7,413.3c18.7-3.2,40.2,7.4,44.7,28.4c3.8-14.8,18.4-23.2,31.6-22.6c13.2,0.6,25.2,7.8,36.4,15.4
	c11.2,7.6,22.6,15.7,35.6,18.1c-28.8,31.6-68.6,49.1-107.5,47.4c-32.4-1.5-69.6-16.9-91.5-45c-12.2-15.7-8.4-13.1,5.5-20.2
	c14.7-7.5,29.1-18.6,45.3-21.3"/>
<path fill="#78A0BE" d="M414.7,26.2c8.9,12.9,12.6,28.5,13.6,44.1c1.4,26-4,51.9-15.8,75.3C400.7,169,383,189.1,360.9,204
	c-6.8,4.9-14.6,8.3-22.9,9.9c-4.2,0.7-8.5,0.4-12.5-0.9c-4-1.3-7.6-3.6-10.4-6.6c-7.7-9.3-4.4-23.2,1.4-33.7
	c14.4-26.2,18.8-39.4,3.5-66.5c-10.4-18.4-25-46.3-15-67.1C323.7,0.2,383.7-19,414.7,26.2z"/>
</svg>
