<?xml version="1.0" encoding="utf-8"?>
<!-- Generator: Adobe Illustrator 25.2.3, SVG Export Plug-In . SVG Version: 6.00 Build 0)  -->
<svg version="1.1" id="Слой_1" xmlns="http://www.w3.org/2000/svg" xmlns:xlink="http://www.w3.org/1999/xlink" x="0px" y="0px"
	 width="787.5px" height="500px" viewBox="0 0 787.5 500" enable-background="new 0 0 787.5 500" xml:space="preserve">
<path fill="#78A0BE" d="M461.8,349.5c-4.5-10.1-6.3-77.5-6.7-97.4c-0.7-36.9-1.4-73.9-2.1-111c-23.6-33.1-41.7-55.3-46.8-55.3
	c-18.8,0.6-60.9,76.6-60.9,76.6S252.5,12.5,225,12.5c-27.5,0-229.4,377.1-225,393.7c5.8,21.2,27.4,32.9,47.3,41.2
	c122.7,50.8,256.9,65.2,387.3,41.7c46.1-8.2,151-21.9,177.1-68.2c6.9-12.4-37.4-92.6-86.7-171.5l-0.8,93.3c0,12-58,16.7-62.5,6.9"/>
<path fill="#FFA046" d="M706.5,84.1c0,0,74.1-65.5,70.8-77.8c-3.3-12.3-192.2-3.3-281-1c-13.2,0.3-27.8,1.3-36.9,10.3
	c-9.1,9-9.6,23.4-9.4,36.2c0.7,31.8,1.3,63.6,2,95.4c21.8,28.6,48.2,65.5,73.3,102.9c0.2-26.5,0.4-53,0.6-79.5
	c93.5,0.3,254.8,4.4,261.3-7.9c6.6-12.3-80.6-78.6-80.6-78.6"/>
<path fill="#507800" d="M452.2,146.9c0.8,34.5-0.7,84.8,0,119.5c0.4,18.8,2.3,81.9,7,91.1s65,4.7,65.2-6.4l0.7-102.8
	c-25.6-36.8-33.9-51.5-56.2-79.6"/>
</svg>
