<?xml version="1.0" encoding="utf-8"?>
<!-- Generator: Adobe Illustrator 25.2.3, SVG Export Plug-In . SVG Version: 6.00 Build 0)  -->
<svg version="1.1" id="Слой_1" xmlns="http://www.w3.org/2000/svg" xmlns:xlink="http://www.w3.org/1999/xlink" x="0px" y="0px"
	 width="531.1px" height="500px" viewBox="0 0 531.1 500" enable-background="new 0 0 531.1 500" xml:space="preserve">
<path fill-rule="evenodd" clip-rule="evenodd" fill="#FFA046" d="M400.5,473.9c67.1-38.1,148.6-149.8,129.4-243.2
	c-11.3-55-58.2-133.9-155.2-107.1c-77,21.3-83.3,66.6-86.6,102c0.7,29.7-34.3,81-68.8,82.6c-50.2,2.3-100.7,96.3-28.4,161.2
	C249.9,522.3,364.8,498.9,400.5,473.9z M416.4,284.8c21.2,0.8,39.1-16.5,40-38.8c0.9-22.3-15.6-41-36.8-41.8
	c-21.2-0.8-39.1,16.5-40,38.8C378.7,265.2,395.2,283.9,416.4,284.8z"/>
<path fill-rule="evenodd" clip-rule="evenodd" fill="#78A0BE" d="M269.3,5c-69.9-14.6-196.8,13-244,89.4
	c-27.8,44.9-46.9,128.3,35.9,168.9c65.8,32.3,99.2,4.8,124.1-17.8c18.7-21,75.3-35.2,99.6-15.2c35.4,29.1,130-5.2,123-94.3
	C402.2,63.4,309.5,9.5,269.3,5z M136.8,126.2c-13.8-13.5-37.1-12.4-52,2.4c-14.9,14.9-15.8,37.9-2.1,51.4s37.1,12.4,52-2.4
	C149.6,162.8,150.6,139.8,136.8,126.2z"/>
<path fill-rule="evenodd" clip-rule="evenodd" fill="#507800" d="M404.7,118.4c-9.4,0.6-19.5,2.2-30.1,5.2
	c-77,21.3-83.3,66.6-86.6,102c0,2.2-0.1,4.5-0.4,6.9c37.3,25.3,127.1-9.5,120.2-96.3C407.4,130.1,406.4,124.2,404.7,118.4z"/>
<path fill="#82C832" d="M66.6,292.2c-23.9-2.4-48.9,10.7-57.5,32.7c-8.5,22,0.1,47.4,16.2,64.7c7,7.8,15.6,14,25.2,18.3
	c9.6,4.3,19.9,6.5,30.2,6.5c10.4-0.2,20.4-3.2,29.1-8.7c8.6-5.5,15.6-13.3,20-22.5C147.4,343.1,106.5,296.3,66.6,292.2z"/>
</svg>
