<?xml version="1.0" encoding="utf-8"?>
<!-- Generator: Adobe Illustrator 24.0.0, SVG Export Plug-In . SVG Version: 6.00 Build 0)  -->
<svg version="1.1" id="Слой_1" xmlns="http://www.w3.org/2000/svg" xmlns:xlink="http://www.w3.org/1999/xlink" x="0px" y="0px"
	 width="442px" height="500px" viewBox="0 0 442 500" enable-background="new 0 0 442 500" xml:space="preserve">
<g>
	<path fill="#FFA046" d="M368,212.3c12.3,15.5,27.8,27,40.9,40.9c25.4,27,35.2,61.3,32.7,95.6c-1.6,26.2-8,57.4-21.1,79.5
		C414,439.7,373,500,336.1,500H220.8h-74c-54.4,0-52.8-44.1-54.4-54.8c-3.3-21.3,0-41.7,7.4-62.1c7.4-21.3,42.7-48.6,50.1-69.8
		c8.2-22.9,6.5-37.3,0-60.1c-9.8-33.5-50.1-69.5-59.1-103c-11.5-39.2-14.7-75.2,13.9-107.9C125.9,18.5,157.8,3,189.7,0.6
		c22.1-2.5,42.5,3.3,61.3,14.7c13.9,8.2,25.4,24.5,36.8,36c17.2,17.2,44.2,35.6,63,51.1c25.4,22.1,46.6,41.4,31.1,74.9
		c-8.4,12.2-13.9,12.2-31.1,16.2C352.5,199.1,363.9,207.4,368,212.3z"/>
	<path fill="#FFFFFF" d="M288,304.4c-9.8,15.8,3.3,52.8,23.7,67.7c6.7,4.9,13.7,7.5,20.3,8.8c10.7,2.1,28.5-8.9,22.2-31.5
		c-4.8-17.6-17.4-35.7-31.1-45.5C309.5,294.1,294.6,293.9,288,304.4z"/>
	<path fill="#FFFFFF" d="M332.4,380.8c17.2,5.9,45.2-12.7,51.3-33.7c2-6.9,1.9-13.7,0.9-19.8c-1.8-10-17.4-23.8-35.1-14
		c-13.8,7.6-25.5,22.2-29.4,36.3C316.1,363.5,321,376.8,332.4,380.8z"/>
	<path fill="#82C832" d="M2.8,191.9c0,0-15.8,41.4,27.3,62.2c0,0,3.5-11.9,45.2-29.4c41.7-17.5,79.9-44,79.9-44s55.9-13.5,59.4-55.2
		c0.2-3.4,0.2-7.8-1.2-12.9c0,0-4.5-29.7-31.2-43.6c-7.5-3.5-15.8-5.8-27-6.2c-18.9-0.6-38.7,3.5-54.4,15.3
		c-9.2,6.8-18.1,19.1-20.6,30.7C77.8,120.5,30.1,154.7,2.8,191.9z"/>
	<path fill="#82C832" d="M217.3,356.9c-4,11.9-4,0-4,0c7.9,0-17.3-19.6-17.3-19.6c-10.5-12.1-22.4-20-22.4-20
		c-7.9-7.9-18.5-14.5-18.5-14.5s-25-19.7-47.7-49.7l-48-56C65.6,211.7,4,173.9,4,226c0,0,13.7,26.5,45.6,54.3l81.6,56.9l16.4,13.4
		c12.8,17.3,29.4,36.4,48.5,47.8c12.5,8,28.3,13,38-3.3c8-12.4,3.2-20.7-3.6-29.8C227.5,360.9,221.3,361.4,217.3,356.9z"/>
	<path fill-rule="evenodd" clip-rule="evenodd" fill="#507700" d="M133,339.5l14.5,11.9c12.8,17.3,29.4,36.4,48.5,47.8
		c21.2,17.2,76.8-14.5,37.1-50.2c-14.6-16.3-39.7-31.7-39.7-31.7c-15.9-13.8-38.3-13.8-38.3-13.8s-0.6-0.5-1.7-1.4
		c-0.9,3.8-2.1,7.7-3.6,12C147.1,321.8,140.6,330.5,133,339.5z M120.4,202.9c-12.6-17.5-25.1-35.1-29.6-52
		c-4.9-16.7-8.3-32.8-8.3-48.3c3.8-9.3,11-18.2,18.4-23.7c15.6-11.8,35.5-15.9,54.4-15.3c11.1,0.4,19.4,2.6,27,6.2
		c26.8,13.9,31.2,43.6,31.2,43.6c1.3,5.2,1.4,9.5,1.2,12.9c-3.4,41.6-59.4,55.2-59.4,55.2S141,191.2,120.4,202.9z"/>
</g>
</svg>
