<?xml version="1.0" encoding="utf-8"?>
<!-- Generator: Adobe Illustrator 25.2.3, SVG Export Plug-In . SVG Version: 6.00 Build 0)  -->
<svg version="1.1" id="Слой_1" xmlns="http://www.w3.org/2000/svg" xmlns:xlink="http://www.w3.org/1999/xlink" x="0px" y="0px"
	 width="502.3px" height="500px" viewBox="0 0 502.3 500" enable-background="new 0 0 502.3 500" xml:space="preserve">
<path fill="#78A0BE" d="M494.7,477.5l-1.8,1.8c-8.4,8.2-21.9,8.2-30.3,0L292.5,311.7c-8.4-8.2-8.4-21.6,0-29.8l1.8-1.8
	c8.4-8.2,21.9-8.2,30.3,0l170.2,167.5C503.1,455.9,503.1,469.2,494.7,477.5z"/>
<path fill-rule="evenodd" clip-rule="evenodd" fill="#82C832" d="M114.3,22.7c4.2-4.1,4.2-10.8,0-14.9l-7.4-7.3
	c-4.2-4.1-11-4.1-15.1,0l-90,88.6c-4.2,4.1-4.2,10.8,0,14.9l7.4,7.3c4.2,4.1,11,4.1,15.1,0l30-29.5c0,0,0.1,0.1,0.1,0.1l82.2,80.9
	c8.4,8.2,21.9,8.2,30.3,0l7.3-7.2c8.4-8.2,8.4-21.6,0-29.8L91.9,45c0,0-0.1-0.1-0.1-0.1L114.3,22.7z"/>
<path fill-rule="evenodd" clip-rule="evenodd" fill="#FFA046" d="M219.4,67.1c4.2-4.1,4.2-10.8,0-14.9l-7.4-7.3
	c-4.2-4.1-11-4.1-15.1,0l-37.5,36.9c0,0-0.1,0.1-0.1,0.1l-74.8,73.7c0,0-0.1,0.1-0.1,0.1l-37.5,36.9c-4.2,4.1-4.2,10.8,0,14.9
	l7.4,7.3c4.2,4.1,11,4.1,15.1,0l22.5-22.1L276.9,375c8.4,8.2,21.9,8.2,30.3,0l74.8-73.7c8.4-8.2,8.4-21.6,0-29.8L196.9,89.2
	L219.4,67.1z"/>
<path fill-rule="evenodd" clip-rule="evenodd" fill="#507800" d="M364.2,318.7L340,294.9c-8.4-8.2-21.9-8.2-30.3,0l-1.3,1.3
	c-8.4,8.2-8.4,21.6,0,29.8l24.2,23.9L364.2,318.7z"/>
<path fill-rule="evenodd" clip-rule="evenodd" fill="#507800" d="M144.4,96.6l-37.5,37l29.8,29.3c8.4,8.2,21.9,8.2,30.3,0l7.3-7.2
	c8.4-8.2,8.4-21.6,0-29.8L144.4,96.6z"/>
<path fill="#82C832" d="M177.1,413.6c-9-35.8-31.6-59.8-55.9-99.2c-4.6-7.5-16.7-7.2-21.3,0.3c-19.4,31.5-53.5,76.4-53.5,98.9
	c0,27.6,3,56.9,32.7,74.3c23,13.7,52.3,12.5,73.1-2.3C172.8,470.9,183.9,441,177.1,413.6z"/>
</svg>
