<svg width="56" height="40" viewBox="0 0 56 40" fill="none" xmlns="http://www.w3.org/2000/svg">
<g opacity="0.3">
<path d="M10.4142 31.7387C8.5715 30.328 7.3458 28.3196 6.4976 26.1947C5.12571 22.6338 4.73652 18.7812 5.36682 15.001C5.99711 11.2209 7.62607 7.63788 10.0998 4.59063C10.841 3.60533 11.8045 2.78908 12.9174 2.20352C13.4771 1.91781 14.1014 1.77151 14.7312 1.77845C15.361 1.78538 15.9755 1.94533 16.5165 2.24315C18.0341 3.20117 18.1857 5.27892 17.834 7.0026C16.957 11.2795 16.925 13.3121 20.3191 16.4222C22.6281 18.5331 25.9617 21.7735 25.4677 25.1077C24.5481 31.3525 16.8585 36.6681 10.4142 31.7387Z" fill="#82C831"/>
<path d="M38.7121 35.3911C36.8693 33.9803 35.6436 31.9719 34.7955 29.8471C33.4236 26.2861 33.0344 22.4336 33.6647 18.6534C34.295 14.8732 35.9239 11.2902 38.3976 8.24298C39.1389 7.25768 40.1024 6.44143 41.2153 5.85586C41.775 5.57016 42.3993 5.42386 43.0291 5.43079C43.6589 5.43773 44.2734 5.59768 44.8144 5.8955C46.332 6.85352 46.4836 8.93126 46.1318 10.6549C45.2548 14.9319 45.2228 16.9644 48.617 20.0745C50.9259 22.1854 54.2595 25.4258 53.7655 28.7601C52.8459 35.0049 45.1564 40.3205 38.7121 35.3911Z" fill="#82C831"/>
</g>
</svg>
