<?xml version="1.0" encoding="utf-8"?>
<!-- Generator: Adobe Illustrator 25.2.3, SVG Export Plug-In . SVG Version: 6.00 Build 0)  -->
<svg version="1.1" id="Слой_1" xmlns="http://www.w3.org/2000/svg" xmlns:xlink="http://www.w3.org/1999/xlink" x="0px" y="0px"
	 width="363.7px" height="500px" viewBox="0 0 363.7 500" enable-background="new 0 0 363.7 500" xml:space="preserve">
<path fill="#78A0BE" d="M343.6,97.3c-9.1-43.4-25.3-69.8-67.9-71.6c0.6,9.6,0.7,19.3,0.2,29c-82.2,5.4-156.6,5.2-222.5,4.5
	c0.5-9.9,0.9-18.2,1.4-26.2c-14.5,2.7-28,7.9-38,18.4C-0.2,69.6-0.5,97.3,0.2,122c2.9,100.9,5.7,201.8,8.6,302.7
	c0.5,18.1,1.6,37.7,13.1,51.7c15.5,18.7,43.4,20.7,68,21l177.2,2.5c28.8,0.4,60.5-0.2,82.1-18.9C373.7,459.9,363.9,194.1,343.6,97.3
	z"/>
<path fill="#FFA046" d="M270.2,25.6c1.9,0,3.8,0,5.5,0C274.8,11.5,273.5,0,273.5,0S95.4,2.4,57,0c-0.6,12.7-1.2,22.7-1.9,33
	c11.3-1.9,22.7-2.9,34.1-3c60.3-1.5,120.6-4.2,180.9-4.6"/>
<path fill="#507800" d="M275.9,54.7c0.5-9.7,0.5-19.3-0.2-29c-1.8,0-3.6,0-5.5,0c-60.3,0.2-120.7,2.8-180.9,4.2
	c-11.5,0.1-23.1,1-34.4,2.9c-0.5,8.1-0.9,16.3-1.4,26.2c65.9,0.9,140.2,0.9,222.5-4.5"/>
<path fill="#FFFFFF" d="M302.7,141.4c-1.8-7.5-8.9-14.8-20.8-17.6c-7.8-1.4-15.7-1.8-23.6-1.2l-157.9,5.1c-10.1,0.3-21,0.8-28.6,4.7
	c-9.3,4.7-10.7,12.7-11.4,19.8c-0.9,8.3-0.9,17.8,9.6,23.3c7.6,4,19,4.6,29.3,4.9c54.3,1.6,108.9,1.1,163.1-1.6
	c8.8-0.1,17.5-1.3,26-3.6c16.6-5.4,16.7-24.3,14.4-34"/>
<path fill="#FFFFFF" d="M302.7,319.4c-1.8-7.5-8.9-14.8-20.8-17.6c-7.8-1.4-15.7-1.8-23.6-1.2l-157.9,5.1c-10.1,0.3-21,0.8-28.6,4.7
	c-9.3,4.7-10.7,12.7-11.4,19.8c-0.9,8.3-0.9,17.8,9.6,23.3c7.6,4,19,4.6,29.3,4.9c54.3,1.6,108.9,1.1,163.1-1.6
	c8.8-0.1,17.5-1.3,26-3.6c16.6-5.4,16.7-24.3,14.4-34"/>
<path fill="#FFFFFF" d="M289.5,230.4c-1.8-7.5-8.9-14.8-20.8-17.6c-7.9-1.4-15.9-1.8-23.9-1.2l-157.7,5.1c-10.1,0.3-21,0.8-28.6,4.7
	c-9.3,4.7-10.7,12.7-11.4,19.8c-0.9,8.3-0.9,17.8,9.6,23.3c7.6,4,19,4.6,29.3,4.9c54.3,1.6,108.9,1.1,163.1-1.6
	c8.8-0.1,17.5-1.3,26-3.6C291.7,258.9,291.8,240,289.5,230.4"/>
</svg>
