<?xml version="1.0" encoding="utf-8"?>
<!-- Generator: Adobe Illustrator 24.0.0, SVG Export Plug-In . SVG Version: 6.00 Build 0)  -->
<svg version="1.1" id="Слой_1" xmlns="http://www.w3.org/2000/svg" xmlns:xlink="http://www.w3.org/1999/xlink" x="0px" y="0px"
	 width="448px" height="500px" viewBox="0 0 448 500" enable-background="new 0 0 448 500" xml:space="preserve">
<g>
	<path fill="#82C832" d="M440.7,164.4C403.7,31.1,222.7-43.2,110.6,26.9c-37.3,23.3-65.4,58.4-87.8,96.2
		c-36.7,61.5-38.9,226.3,66.9,283.3c82.7,44.5,187.4,40.8,261.7-7.6c74.3-48.4,113.8-145.3,89.2-234.2"/>
	<path fill="#507800" d="M201.6,76.6c-10.7,4.6-19.7,12.3-25.9,22.1c-6.2,9.8-9.4,21.3-9,33c0.8,11.6,4.9,22.8,11.8,32.1
		c6.9,9.3,16.4,16.5,27.2,20.5c24.4,8.8,54.5-0.9,68.1-23.1C300.9,116.6,249.1,57.5,201.6,76.6z"/>
	<path fill="#507800" d="M177,238c-11.2,16-12.7,37.3-13.8,57.1l-3.5,64.2l-2.7,49.9c-1,17.4-1.8,35.3,2.6,52.1
		c4.5,16.8,15.3,32.6,31,37.3c19.1,5.8,39.7-7.1,50.7-25.1c11-17.9,14.6-39.8,18-61c3-19,6.8-40.3,9.2-62.1
		c3.8-34.1,4.2-69.4-7.2-98.4C247.8,218.1,200.4,204.7,177,238z"/>
	<path fill="#FFA046" d="M156.3,437.5c0.3,7.8,1.4,15.6,3.4,23.1c4.8,17,16.4,33.2,33.2,37.9c20.5,5.8,42.6-7.3,54.4-25.5
		c6-9.7,10.5-20.3,13.1-31.5C225.8,447.4,190.4,446,156.3,437.5"/>
</g>
</svg>
