<?xml version="1.0" encoding="utf-8"?>
<!-- Generator: Adobe Illustrator 25.2.3, SVG Export Plug-In . SVG Version: 6.00 Build 0)  -->
<svg version="1.1" id="Слой_1" xmlns="http://www.w3.org/2000/svg" xmlns:xlink="http://www.w3.org/1999/xlink" x="0px" y="0px"
	 width="500px" height="500px" viewBox="0 0 500 500" enable-background="new 0 0 500 500" xml:space="preserve">
<defs>
	<filter id="Adobe_OpacityMaskFilter" filterUnits="userSpaceOnUse" x="0" y="0" width="500" height="500">
		<feColorMatrix  type="matrix" values="1 0 0 0 0  0 1 0 0 0  0 0 1 0 0  0 0 0 1 0"/>
	</filter>
</defs>
<mask maskUnits="userSpaceOnUse" x="0" y="0" width="500" height="500" id="mask0_1_">
	<path fill-rule="evenodd" clip-rule="evenodd" fill="#1D2F3C" filter="url(#Adobe_OpacityMaskFilter)" d="M323,291.6h-16.5
		l-5.8-5.7c20.3-23.7,32.7-54.4,32.7-88c0-74.8-60.6-135.4-135.4-135.4S62.5,123.1,62.5,197.9c0,74.8,60.6,135.4,135.4,135.4
		c33.6,0,64.3-12.3,88-32.6l5.8,5.7v16.5l104.1,104l31.1-31.1L323,291.6z M197.9,291.6c-51.8,0-93.8-42-93.8-93.7
		c0-51.8,42-93.8,93.8-93.8c51.8,0,93.7,42,93.7,93.8C291.7,249.7,249.7,291.6,197.9,291.6z"/>
</mask>
<g mask="url(#mask0_1_)">
	<rect fill="#1D2F3C" width="500" height="500"/>
</g>
</svg>
