<?xml version="1.0" encoding="utf-8"?>
<!-- Generator: Adobe Illustrator 24.0.0, SVG Export Plug-In . SVG Version: 6.00 Build 0)  -->
<svg version="1.1" id="Слой_1" xmlns="http://www.w3.org/2000/svg" xmlns:xlink="http://www.w3.org/1999/xlink" x="0px" y="0px"
	 width="500px" height="500px" viewBox="0 0 500 500" enable-background="new 0 0 500 500" xml:space="preserve">
<g>
	<path fill-rule="evenodd" clip-rule="evenodd" fill="#82C832" d="M169.6,29.6C279.6-47.5,456.7,34.1,493,180.8
		c23.9,97.9-15,204.6-87.5,257.3c-73.2,52.6-175.7,57.1-256.4,8.2C45.1,384,47.8,202.3,83.4,134.9C105.3,93.4,133.3,54.8,169.6,29.6
		z M371.4,138.7c13-8.9,33.8,0.5,38,17.5c2.8,11.3-1.8,23.6-10.3,29.7c-8.6,6.1-20.7,6.6-30.2,0.9c-12.2-7.2-11.9-28.1-7.7-35.9
		C363.8,146.1,367.1,141.6,371.4,138.7z"/>
	<path fill="#82C832" d="M164.4,355.6c7.2-0.7,15.2-1.6,23.6-4.2c5.4-1.6,14.3-0.7,17.2,0.5c5.4,2.3,11.2,3.8,17.3,4.4
		c22.2,2.1,46.6-7.3,66.7-25.7c35.7-32.7,45.6-81.6,22.6-111.5c-9.2-11.9-22.9-19.3-38.6-20.7c-22.2-2.1-46.6,7.3-66.7,25.7
		c-24.5,22.4-36.8,52.6-34.7,78.9c0.6,6.9-5.8,11.2-10.7,11.7c-14.8,1.4-35,3.3-55.7,22.3c-21.3,19.5-20.2,45.5-19.4,64.5
		c0.8,18.1,0.4,26.1-6.4,32.4c-7.7,7-17.4,9.4-28.6,12.1c-2.2,0.5-4.4,1.1-6.7,1.7C12.8,455.5,1.3,498,0,499.9c0,0,0,0.1,0,0.1
		c1.5,0,31-18.1,52.7-20.7c13.6-1.6,36.6-0.6,51.5-14.2c21.8-19.9,20.7-46.4,19.9-65.6c-0.7-17.7-0.4-25.5,5.9-31.3
		C141.6,357.7,151.7,356.8,164.4,355.6z"/>
	<path fill-rule="evenodd" clip-rule="evenodd" fill="#507800" d="M124.3,419.3c-14.9-16.4-26.4-36-34.9-57.3
		c2.8-8.8,7.7-17.5,16.1-25.1c20.8-19,41-20.9,55.7-22.3h0c4.9-0.5,11.3-4.8,10.7-11.7c-2.1-26.3,10.2-56.5,34.7-78.9
		c20.1-18.4,44.4-27.8,66.7-25.7c15.7,1.5,29.4,8.8,38.6,20.7c23,29.9,13.1,78.8-22.6,111.5c-20.1,18.4-44.4,27.8-66.7,25.7
		c-6.1-0.6-11.9-2.1-17.3-4.4c-2.8-1.2-11.8-2.1-17.2-0.5c-8.4,2.6-16.5,3.5-23.6,4.2l0,0c-12.7,1.2-22.8,2.1-34.3,12.6
		c-6.4,5.8-6.7,13.6-5.9,31.3C124.4,405.5,124.7,412.3,124.3,419.3z"/>
</g>
</svg>
