<?xml version="1.0" encoding="utf-8"?>
<!-- Generator: Adobe Illustrator 25.2.3, SVG Export Plug-In . SVG Version: 6.00 Build 0)  -->
<svg version="1.1" id="Слой_1" xmlns="http://www.w3.org/2000/svg" xmlns:xlink="http://www.w3.org/1999/xlink" x="0px" y="0px"
	 width="555.5px" height="500px" viewBox="0 0 555.5 500" enable-background="new 0 0 555.5 500" xml:space="preserve">
<path fill="#82C832" d="M501.9,187.9C459.6,35.5,252.9-49.4,124.7,30.7C82.2,57.4,50,97.4,24.5,140.7
	C-17.5,211-20,399.3,100.9,464.4c94.4,50.9,214.2,46.6,299.1-8.7C484.9,400.4,530,289.7,501.9,188"/>
<path fill="#78A0BE" d="M305.8,240.3c-8.9,11.2-25.7,12.1-35.7,1.8L158.3,127.3c-10-10.2-26.6-9.5-35.6,1.6L95,163.4
	c-7.6,9.4-7,22.9,1.4,31.6l174.7,179.5c9.6,9.9,25.7,9.6,34.9-0.8l235.9-265.8c20.4-22.9,14-58.8-12.9-73.5l-23.9-13
	c-10.2-5.5-22.8-2.9-30,6.1L305.8,240.3z"/>
<path fill-rule="evenodd" clip-rule="evenodd" fill="#507800" d="M438,83.3L309.7,244.7c-8.9,11.2-25.7,12.1-35.7,1.8L162.3,131.7
	c-10-10.2-26.6-9.5-35.6,1.6l-27.8,34.4c-7.6,9.4-7,22.9,1.4,31.6L275,378.9c9.6,9.9,25.7,9.6,34.9-0.8l187.2-211
	C483.9,135.3,463.3,107,438,83.3z"/>
</svg>
