<?xml version="1.0" encoding="utf-8"?>
<!-- Generator: Adobe Illustrator 24.0.0, SVG Export Plug-In . SVG Version: 6.00 Build 0)  -->
<svg version="1.1" id="Слой_1" xmlns="http://www.w3.org/2000/svg" xmlns:xlink="http://www.w3.org/1999/xlink" x="0px" y="0px"
	 width="556px" height="500px" viewBox="0 0 556 500" enable-background="new 0 0 556 500" xml:space="preserve">
<g>
	<path fill="#82C832" d="M504,187.9C461.6,35.5,254.7-49.4,126.5,30.7C83.9,57.4,51.7,97.4,26.1,140.7
		c-41.9,70.3-44.5,258.6,76.5,323.7C197.2,515.3,317,511,402,455.7c85-55.3,130.2-166.1,102-267.7"/>
	<path fill="#78A0BE" d="M307.7,240.3c-8.9,11.2-25.7,12.1-35.7,1.8L160.2,127.3c-10-10.2-26.6-9.5-35.6,1.6l-27.8,34.4
		c-7.6,9.4-7,22.9,1.5,31.6L273,374.5c9.7,9.9,25.7,9.6,34.9-0.8L544,107.9C564.3,84.9,558,49,531.1,34.4l-23.9-13
		c-10.2-5.5-22.8-2.9-30,6.1L307.7,240.3z"/>
	<path fill-rule="evenodd" clip-rule="evenodd" fill="#507800" d="M440.1,83.3L311.6,244.7c-8.9,11.2-25.7,12.1-35.7,1.8
		L164.1,131.7c-10-10.2-26.6-9.5-35.6,1.6l-27.8,34.4c-7.6,9.4-7,22.9,1.4,31.6l174.8,179.5c9.7,9.9,25.7,9.6,34.9-0.8l187.4-211
		C485.9,135.3,465.4,107,440.1,83.3z"/>
</g>
</svg>
