<?xml version="1.0" encoding="utf-8"?>
<!-- Generator: Adobe Illustrator 24.0.0, SVG Export Plug-In . SVG Version: 6.00 Build 0)  -->
<svg version="1.1" id="Слой_1" xmlns="http://www.w3.org/2000/svg" xmlns:xlink="http://www.w3.org/1999/xlink" x="0px" y="0px"
	 width="423px" height="500px" viewBox="0 0 423 500" enable-background="new 0 0 423 500" xml:space="preserve">
<g>
	<path fill="#78A0BE" d="M416.1,242C381.1,116.1,210.3,46,104.4,112.2c-35.2,22-61.7,55.1-82.9,90.9
		C-13,261.1-15.2,416.7,84.8,470.6c78,42.1,177,38.5,247.1-7.2c70.2-45.7,107.5-137.2,84.2-221.2"/>
	<path fill="#82C832" d="M129.8,44.5c-3.8-20.5,9.8-40.1,30.2-43.9c21.7-4,42.2,11.4,44.3,33.4l21.8,222.5
		c1.4,14.6-8.5,27.8-23,30.5c-15.3,2.8-30-7.3-32.8-22.6L129.8,44.5z"/>
	<path fill-rule="evenodd" clip-rule="evenodd" fill="#507800" d="M209.6,87.1l16.6,169.4c1.4,14.6-8.5,27.8-23,30.5
		c-15.3,2.8-30-7.3-32.8-22.6L139.3,95.9C161.6,88.5,185.5,85.8,209.6,87.1z"/>
	<path fill="#82C832" d="M229.4,347.6c-12.9-8-17.3-24.7-10.1-38c8.6-16,29.8-20.1,43.7-8.4l143.5,120.3c6.4,5.4,7.5,14.8,2.4,21.5
		c-4.9,6.4-13.9,8-20.7,3.8L229.4,347.6z"/>
	<path fill-rule="evenodd" clip-rule="evenodd" fill="#507800" d="M388.7,406.5L263.1,301.2c-13.9-11.7-35.1-7.6-43.7,8.4
		c-7.2,13.3-2.8,30,10.1,38l137.8,86C375.2,425.3,382.3,416.2,388.7,406.5z"/>
	<ellipse fill="#507800" cx="78.7" cy="362.3" rx="29.5" ry="29.5"/>
</g>
</svg>
