<?xml version="1.0" encoding="utf-8"?>
<!-- Generator: Adobe Illustrator 24.0.0, SVG Export Plug-In . SVG Version: 6.00 Build 0)  -->
<svg version="1.1" id="Слой_1" xmlns="http://www.w3.org/2000/svg" xmlns:xlink="http://www.w3.org/1999/xlink" x="0px" y="0px"
	 width="502px" height="500px" viewBox="0 0 502 500" enable-background="new 0 0 502 500" xml:space="preserve">
<g>
	<path fill="#78A0BE" d="M495.7,480l-1.8,1.8c-8.4,8.2-21.9,8.2-30.2,0l-170-167.5c-8.4-8.2-8.4-21.6,0-29.8l1.8-1.8
		c8.4-8.2,21.9-8.2,30.2,0l170,167.5C504.1,458.4,504.1,471.8,495.7,480z"/>
	<path fill-rule="evenodd" clip-rule="evenodd" fill="#82C832" d="M115.6,25.3c4.2-4.1,4.2-10.8,0-14.9l-7.4-7.3
		C104-1,97.2-1,93.1,3.1L3.1,91.7c-4.2,4.1-4.2,10.8,0,14.9l7.4,7.3c4.2,4.1,10.9,4.1,15.1,0l30-29.5c0,0,0.1,0.1,0.1,0.1l82.1,80.9
		c8.4,8.2,21.9,8.2,30.2,0l7.3-7.2c8.4-8.2,8.4-21.6,0-29.8L93.2,47.5c0,0-0.1-0.1-0.1-0.1L115.6,25.3z"/>
	<path fill-rule="evenodd" clip-rule="evenodd" fill="#FFA046" d="M220.6,69.6c4.2-4.1,4.2-10.8,0-14.9l-7.4-7.3
		c-4.2-4.1-10.9-4.1-15.1,0l-37.4,36.9c0,0-0.1,0.1-0.1,0.1l-74.8,73.7c0,0-0.1,0.1-0.1,0.1l-37.4,36.9c-4.2,4.1-4.2,10.8,0,14.9
		l7.4,7.3c4.2,4.1,10.9,4.1,15.1,0l22.5-22.1l185,182.2c8.4,8.2,21.9,8.2,30.2,0l74.8-73.7c8.4-8.2,8.4-21.6,0-29.8l-185-182.2
		L220.6,69.6z"/>
	<path fill-rule="evenodd" clip-rule="evenodd" fill="#507800" d="M365.4,321.3l-24.2-23.9c-8.4-8.2-21.9-8.2-30.2,0l-1.3,1.3
		c-8.4,8.2-8.4,21.6,0,29.8l24.2,23.9L365.4,321.3z"/>
	<path fill-rule="evenodd" clip-rule="evenodd" fill="#507800" d="M145.6,99.1l-37.5,37l29.7,29.3c8.4,8.2,21.9,8.2,30.2,0l7.3-7.2
		c8.4-8.2,8.4-21.6,0-29.8L145.6,99.1z"/>
	<path fill="#82C832" d="M178.3,416.1c-9-35.8-31.6-59.8-55.9-99.2c-4.6-7.5-16.7-7.2-21.3,0.3c-19.4,31.5-53.5,76.4-53.5,98.9
		c0,27.6,3,56.9,32.6,74.3c23,13.7,52.2,12.5,73.1-2.3C174.1,473.4,185.2,443.5,178.3,416.1z"/>
</g>
</svg>
